<svg xmlns="http://www.w3.org/2000/svg" viewBox="0 0 319.33 486.13"><defs><style>.cls-1{fill:#231f20;}</style></defs><title>mylogo-white2</title><g id="Layer_2" data-name="Layer 2"><g id="Layer_1-2" data-name="Layer 1"><path class="cls-1" d="M1.06,230.46c-1.3-.14-.86,1.13-1.06,1.35C2.2,231.57,1,230.13,1.06,230.46Z"/><polygon class="cls-1" points="22.55 227.48 22.18 228 25.3 226.63 22.55 227.48"/><path class="cls-1" d="M42.56,226.42c-1-1-2.82-.78-4.82-.39s-4.21,1-6,.67l-.61-.46L29.59,228C33.93,227.57,39.48,226.06,42.56,226.42Z"/><path class="cls-1" d="M53.68,230.06c-.75-.76,2.25-.94-2.53,0a4.36,4.36,0,0,1,.47.17C52.06,230.16,52.66,230.11,53.68,230.06Z"/><path class="cls-1" d="M51.62,230.22c-2.12.27,1.46.56,0,0Z"/><path class="cls-1" d="M61.37,228.67l-2.71,1.07c.64.42,3.15.24,2.26.7C63.75,229.7,63.09,229.28,61.37,228.67Z"/><path class="cls-1" d="M63.82,226.81l-1.41.48C62.69,227.47,63.08,227.5,63.82,226.81Z"/><path class="cls-1" d="M59.43,228.31l3-1c-.44-.29-.57-1-1.37.41C61.21,227,60.68,227.71,59.43,228.31Z"/><path class="cls-1" d="M57.66,228.19c-1.61-.27-3.65-.34-.95-1.4C51.43,227.64,52.36,229.08,57.66,228.19Z"/><path class="cls-1" d="M43.41,224.12l-2.12-.45-1.73.84C40.42,224.11,43.59,224.78,43.41,224.12Z"/><path class="cls-1" d="M78.89,227.28c.1-.47-1.13-1.05-1.43-1.59l-2,.84C76.59,226.67,78.64,226.64,78.89,227.28Z"/><path class="cls-1" d="M77.46,225.69c1-.43,2-.82,2.93-1.27C77.64,224.79,77.2,225.22,77.46,225.69Z"/><path class="cls-1" d="M64,224.38c-1.6.77-3.22,1.49-4.83,2.24,1.94-.8,3.87-1.55,5.79-2.39Z"/><polygon class="cls-1" points="90.63 225.19 89.09 226.58 91.88 224.38 90.63 225.19"/><path class="cls-1" d="M98.34,223.39c-1.09,1.15,2.08,1,.84,1.87a18,18,0,0,0,5.16-2.82A11.93,11.93,0,0,1,98.34,223.39Z"/><path class="cls-1" d="M106.81,220.83a25.07,25.07,0,0,0-2.47,1.61A9.27,9.27,0,0,0,106.81,220.83Z"/><path class="cls-1" d="M85.63,223.7a3.42,3.42,0,0,0,2.64.84l-1.44-1Z"/><path class="cls-1" d="M86.78,223.47l0,0,2.6-.43C89.1,223.12,88.31,223.27,86.78,223.47Z"/><path class="cls-1" d="M85.32,223.75l.31-.05C85.49,223.6,85.41,223.57,85.32,223.75Z"/><path class="cls-1" d="M72.17,224.41c1.69-1,5.28-2.34,1.51-2.85C72.54,222.63,74.7,222.92,72.17,224.41Z"/><path class="cls-1" d="M83.55,222.44l-3.28.3c.12.32.79.7,0,1.21Z"/><polygon class="cls-1" points="85.05 221.75 83.55 222.44 84.76 222.33 85.05 221.75"/><path class="cls-1" d="M101,221a15,15,0,0,1,4.46-1.75,45.25,45.25,0,0,0-5.63.91C99.68,220.59,99.05,221.48,101,221Z"/><path class="cls-1" d="M94.08,222.15c.09-.05.21-.09.29-.14C94.16,221.94,94,221.94,94.08,222.15Z"/><path class="cls-1" d="M122.21,214.61l-.33-.14v.23Z"/><path class="cls-1" d="M99.48,220a4.55,4.55,0,0,0-2.89,1.15,31.24,31.24,0,0,1,3.25-1C99.92,219.93,99.91,219.81,99.48,220Z"/><path class="cls-1" d="M111.37,219a23.73,23.73,0,0,0-2.57-.06C109.6,219.17,111.2,219.41,111.37,219Z"/><path class="cls-1" d="M94.92,222.26l-.2.1C95.23,222.53,95.15,222.41,94.92,222.26Z"/><path class="cls-1" d="M94.92,222.26a9.39,9.39,0,0,0,1.67-1.14,15.54,15.54,0,0,0-2.22.89A1.85,1.85,0,0,1,94.92,222.26Z"/><path class="cls-1" d="M124.69,205.18c.14,1.18-3,3.44-6.41,3.06-2.73,1.73.29,4.92,3.6,6.23-.07-.54-.18-.94,2.7-2.63-1.27-.21-7.33.62-5-1.17,2-.88,2.82-1,3.47-1a10.17,10.17,0,0,0,2.17.33c-2.12-.86,4.49-3.73,2.9-5.5l-3.28,1.88C124.65,206.08,125.76,205.16,124.69,205.18Z"/><path class="cls-1" d="M115.87,216.09l-1.25.52a15.34,15.34,0,0,1,4.92.25c2-1.19,2.31-1.74,2.34-2.16l-6.4,1.69Z"/><path class="cls-1" d="M108.8,218.15c.69-1.52,3.64-2.85,1.39-3.71-3.75,1.07-2.38,1.73-4.5,2.87,6-1.91-1.59,1.16,3,.71a26.2,26.2,0,0,1-3.24,1.2c1.15-.14,2.27-.23,3.33-.26l-.16,0h0s0,0,0,0c-.31-.09-.42-.16-.1-.15l.12-.06a1.24,1.24,0,0,1,.16-.54c1.85-.21.36.25-.16.54,0,.07,0,.14,0,.21h0l6-2.31A39.92,39.92,0,0,0,108.8,218.15Z"/><path class="cls-1" d="M76.54,218.29a.34.34,0,0,1,.25.27C77.16,218.34,77.3,218.21,76.54,218.29Z"/><path class="cls-1" d="M79.21,218.65a3.21,3.21,0,0,1-2.19.93c-1.33-.18-.09-.61-.23-1-.82.47-2.93,1.4-.07,1.58l.41-.24c2.56.07,6,1,5.64,1.29A9.46,9.46,0,0,0,79.21,218.65Z"/><path class="cls-1" d="M94.05,218.36c1.67-.54,3.33-1.16,5-1.76l-2.84-.49.28.63C93.51,217.12,94.31,217.77,94.05,218.36Z"/><path class="cls-1" d="M123,215.06l-.27,1.5c.8-.89,1.58-1.84,2.36-2.77C124.38,214.21,123.69,214.65,123,215.06Z"/><polygon class="cls-1" points="129.52 212.76 129.65 213.97 131.17 212.72 129.52 212.76"/><path class="cls-1" d="M149.68,55.41,149,56.74A7.45,7.45,0,0,0,149.68,55.41Z"/><path class="cls-1" d="M156.77,47.48l-.24-.59C156.42,47.47,156.45,47.77,156.77,47.48Z"/><path class="cls-1" d="M254.54,103c1.93-1.65,4.54-3.35,3.2-3.62l-1.48.14A9.18,9.18,0,0,1,254.54,103Z"/><path class="cls-1" d="M231.25,7.09c.21.14.41.3.62.45l1.6-1.11Z"/><path class="cls-1" d="M229.48,12.39c-.88-.3-1.77-.62-2.68-.88A15.74,15.74,0,0,0,229.48,12.39Z"/><path class="cls-1" d="M118.24,105l.33,2.17C119.87,104.79,118.71,105.51,118.24,105Z"/><path class="cls-1" d="M192.86,180.63a23.65,23.65,0,0,0,4.43-2.38C194.92,179.12,192.73,179.37,192.86,180.63Z"/><path class="cls-1" d="M142,43.12c-.45.89-.51,1.37-.28,1.54C142.18,43.76,142.36,43.17,142,43.12Z"/><path class="cls-1" d="M201.85,174.7c-.35.13-.66.3-1,.45a21.87,21.87,0,0,1-3.56,3.1,11.35,11.35,0,0,0,2.59-1.28A5.42,5.42,0,0,0,201.85,174.7Z"/><path class="cls-1" d="M40.93,307a4.55,4.55,0,0,1-.28.43C40.81,307.53,40.88,307.32,40.93,307Z"/><path class="cls-1" d="M12.45,365.43c.07-.63.3-1.63.51-2.58A9.05,9.05,0,0,0,12.45,365.43Z"/><path class="cls-1" d="M155.75,203.12c-1.31.68-.15.23,0,0Z"/><path class="cls-1" d="M147.18,201.27a.85.85,0,0,0,.29-.8A1.08,1.08,0,0,1,147.18,201.27Z"/><path class="cls-1" d="M207.38,159l.1-.09C207,159,207.08,159,207.38,159Z"/><path class="cls-1" d="M153.48,203.49a13,13,0,0,0,1.88-.42A13,13,0,0,0,153.48,203.49Z"/><path class="cls-1" d="M154,203.93l-1.23.41C152.69,204.62,152.9,204.67,154,203.93Z"/><path class="cls-1" d="M157.6,202.21a16,16,0,0,1-2.24.86c.3,0,.44,0,.39.05Z"/><path class="cls-1" d="M73.06,194.83c-.07.07-.14.17-.22.24C72.85,196.61,73,196,73.06,194.83Z"/><path class="cls-1" d="M253.84,63.47c0,.06,0,.1,0,.16l.09-.18Z"/><path class="cls-1" d="M253.89,58.49a4.61,4.61,0,0,1,.07,5c1.34-.26,2.68-.52,4-.8C256.67,61.22,255.26,59.83,253.89,58.49Z"/><path class="cls-1" d="M134.6,76.19l2.94-2.25c-.79,4.59-3,6.71.16,4.93-1.53-1.32.23-4.25,2.14-7a27.43,27.43,0,0,0,2.41-4c.55-1.21.67-2.26-.07-3l2.07-1.32c-.43.5-.3.73-.73,1.23,4.23-2.39-.3-4.43,3.77-8.65,1.54-1.35,2.9-2,2.39-.67l2.13-4.08c.94-.91,1.25-.21.33.71,1.44-1.76,2.86-3.53,4.33-5.26l.06.11A29.37,29.37,0,0,1,158,42.41c1.63-.84-.3.93.38,1,.63-1.15,1.31-2.26,2-3.36.93-.16,1,.49.6,1.39a7.32,7.32,0,0,1-.91,1.46,10.13,10.13,0,0,1-1.31,1.47c2.66.16,3-.54,3.62-1.75s1.38-3,5-4.57c-.75.91-1.52,1.77-2.24,2.7a6.6,6.6,0,0,0,4-1.2c.62-.37,1.26-.8,2-1.23a15.76,15.76,0,0,1,2.53-1.09c-.57,0-2.67.44-4.27.65s-2.83-.05-1.65-1.77a8,8,0,0,0,3.47-3.35c.46.56,1,.44,1.76,0s1.62-1.23,2.64-2l1,1.65c1.91-2.11,1.19-2.76,2.09-4.39a5,5,0,0,1,3.21-.84A6.28,6.28,0,0,1,184,28c2.17-1.09,1.15-1.19.18-1.4s-1.93-.55.53-2.2c1-.39,1.88-.73,2.71-1.13a17.83,17.83,0,0,0,2.37-1.41c.78-.51,1.59-1,2.44-1.65s1.77-1.33,2.84-2c2.94-.34-.07,1.27,1.09,1.44l1.89-2.29c.61-.18.56.35.53.6,1.89-1.14-.41-1.87,2.78-3.3.15-1.16,2.18-.88,4.56-.65s5.11.39,7.06-1.15c1.14.36-.32,1.24.13,1.92,2.78-1.25,4-1.69,5.09-2.17s2-1,4.41-2.24c1.42.34,2.82.7,4.18,1.13-1.51-.71-1.34-1.5-.31-2.29a17.43,17.43,0,0,1,4.76-2.13,20.37,20.37,0,0,0-2.72-1.71,58.68,58.68,0,0,1,6-.61c.68.4,0,1-1.05,1.66.41-.11.81-.22,1.12-.32,2,1,.7,1.91-.83,2.8l-1.89-1.37c-1.5,1.06-2.79,2.3-2.56,3.43a5.16,5.16,0,0,1,1.79-.42c-.37.3-.61.57-.46.77s.74-.19,1.66-.59q.51,1.11,1,2.25l.38-.81a34.91,34.91,0,0,1,6.08,2.62,26.88,26.88,0,0,1,7.76-.44,13.86,13.86,0,0,1,8.83,4.89,1.86,1.86,0,0,0-2.27.42,7.66,7.66,0,0,1-1.64,1.71,2.16,2.16,0,0,0,0-1,2.55,2.55,0,0,0-.49-.81,5.62,5.62,0,0,0-1.74-1.39,45.65,45.65,0,0,1-4.63-2.41c1.52,1.14.63,1.67.11,1.69a17.83,17.83,0,0,1,5.77,2.69,1,1,0,0,0-.41,1.38c.17.55.55,1.21.74,2,.45-.64,1-.83,1.48-.63a4.43,4.43,0,0,1,1.55,1.49,26.72,26.72,0,0,1,1.4,2.56,14.67,14.67,0,0,0,1.23,2.42,1.3,1.3,0,0,1-1.51-.2,7.18,7.18,0,0,1-1.49-2.88,3.17,3.17,0,0,0,0,1.31,2.82,2.82,0,0,0,.4,1,6.3,6.3,0,0,0,1.63,1.47A6.94,6.94,0,0,1,258,31.72a2.83,2.83,0,0,1,.2,2.51c-.16-.87-.06-1.38-.64-1.62a5.45,5.45,0,0,1,.69,1.87,8,8,0,0,1,.21,2.21c-.06,1.4-.37,2.38-.86,1.82l-.1-.87c.09,2.9.13,7.38.08,11.34a43.07,43.07,0,0,0,.24,5.27c.16,1.43.51,2.47,1.1,2.8a14.81,14.81,0,0,1-3.37-1.73A115,115,0,0,1,261.73,68c-.94-.75-2.91-.49-4.64-.75s-3.16-1-3.22-3.59a13.63,13.63,0,0,0-1.45,6.15c.59-.86,3.69-1.6,3.56-.21a16.93,16.93,0,0,0-2.66,2.71,30.43,30.43,0,0,1-2.64,3.33c.89-1.3,3.7,1.32,2.84,3.6-.37-.52-3.29-.88-3.35-1.81.43,2.21.9,4.46,1.25,6.72-.06-1.61-2.61-1.2-3.95-.29.85-.34-1.84,4.76-2.14,6.33.57-.67,1.1-1.36,1.65-2-2.95,6,1.92,8-1,14.14-.28-1-3.07-3.6-4.86-.7a46.49,46.49,0,0,1,2.41,6.48c.79,3,1.25,6.46.38,9.48l-1.42.57c-.43,1.55-.84,3.11-1.3,4.66-.4-1.92-.81-5.32-1.19-8.82s-.69-7.09-.72-9.49c-1.78,1.91-1.34.12-2.93,3.5-1.42.75-.34-2.45.1-3.45l-2.21,3.73-2.27,3.68c1,.3.63,2,.23,3.68s-.89,3.34-.08,3.62c1-3.08,1.88-6.19,2.72-9.3,1,.29,1.62,2.17,1.58,4.66a16.68,16.68,0,0,1-.65,4,15.74,15.74,0,0,1-1.93,4.15c-1.51,1-2.47-2.84-3.14-3.07.22,1-1.88,5.71-2.62,5.91.16-.93.33-1.84.47-2.78-2.44,2.47-.68,6.22-4.67,8.49-1,1.08-4.58,1.89-3.75,2.78,3.18-.47,9.3,3.22,9.73,5.57-.21.16-1.82,1.44-3.59,2.73a22.55,22.55,0,0,1-4.85,2.76c-1.47.36-1.71-1-1.93-2.4s-.39-2.76-1.63-2.47c.38.41.08,1.83-.1,2.39-1.32.86-.92-1.56-2.79,1.1.6.86-.47,2.13-1.15,2.8-.35.33-.58.52-.42.48a10.47,10.47,0,0,0,1.9-1,6.39,6.39,0,0,1-1.15,1.58,7.85,7.85,0,0,1-1.1.94,15.87,15.87,0,0,0-2.84,2.53c.89,0,1.13,1.4.9,3.15a11.64,11.64,0,0,1-.68,2.75,11.11,11.11,0,0,1-1.31,2.42c-.22-.51-1.22-.49-1.7-.46a53.87,53.87,0,0,1-6.63,5.22c-1,.71-2.07,1.42-3.13,2.2s-2.12,1.67-3.38,2.58c-.77,0-3.51,1.28-3-.18a7.94,7.94,0,0,1-2.21,3.06c-4,.79,3.21-2.78-.29-2.79.26.55-.47,1.61-1.48,2.82s-2.4,2.46-3.3,3.55c.87.52,2.23-.3,3.59-1.51a41.74,41.74,0,0,0,3.45-4.08c1.55,2-.58,7.12-5.52,11.77-4,3.51-2.79-.08-3.35.74-8.61,4.78-4.89,8.31-13.08,10.72-3.63.16-1.64-2.76-2.83-3.43a13.52,13.52,0,0,1,4.7-2.28c.72-.21,1.41-.39,2.08-.6a9.69,9.69,0,0,0,1.89-.92c-1.14.41-2.28.81-3.45,1.14,1-1.08,3.12-3,4.68-3.34a11.14,11.14,0,0,0-3.61,1.42c-1.61.79-3.57,1.81-5.64,2.93l-3.2,1.7c-1.1.52-2.21,1-3.3,1.52a41.17,41.17,0,0,1-6.13,2.32c-1,1-2.86,2.49-1.6,2.63L154.7,195c2.56.28-3.37,3.48-.34,2.79-2.57,2.14-5.32,5-9.87,6L143,202.39c.29.47,3.17-.09,4.14-1.09-1.47,1.46-7.37.32-8.44,3.29,1.16,0,2.29,0,3.44,0-.68.51-1.37,1.12-2.1,1.73s-1.51,1.21-2.33,1.78a14.77,14.77,0,0,1-5.45,2.6c2.35,1.08.81-.51,4.26.5-1.63-.82.84-1.68,3.12-2.5s4.34-1.71,2-2.23c3.66,1.17,5.17-.93,9.6-.51-.35-.51-1.72-.5,1.55-1.64a3.54,3.54,0,0,1,.48-.8l.23,0h-.2c.1-.14.1-.17-.08,0a4,4,0,0,1-2-.13c1-2,6-4.11,7.33-5.6,1.94-.64-.46,1,.81,1.09l2-2.19c.83,1.09,5.87-.41,1.9,2.44l3.92-1.89a17.38,17.38,0,0,0,7.51-3.55c2-.7,3.73-3.94,2.74-2.08l5.41-4.29.23.25a28.33,28.33,0,0,0,4.17-3c1.34-1.11,2.69-2.28,4.09-3.4a31.16,31.16,0,0,1,9.52-6,30.25,30.25,0,0,1,6.23-5.77l1.34.39c1.91-2.26,7.27-5.26,7.35-7,2.27,0,4.84-2.57,7.39-5.5a55.08,55.08,0,0,0,3.53-4.59,32.58,32.58,0,0,1,3.08-3.74l-1.06-1.1a27.11,27.11,0,0,0,3.09-4.43c1-1.61,1.9-3.36,2.94-5.32l-1.26-.55c1.27-3.67,6.17-7.55,9-12.8.23.6-.62,1.86-1.45,2.61,3.13-2.29,4.51-5.88,5.64-9.42s2-7,4.41-9.48a6.39,6.39,0,0,1,1.66-3.51,1.18,1.18,0,0,0-.1.39,6.56,6.56,0,0,0,.29-.59c.5-.55,1.05-1.1,1.57-1.74a9.57,9.57,0,0,0-1.43,1.41,28.83,28.83,0,0,0,1.51-4.73l1.64-.16c0-.14.09-.25.13-.4,1.19-1.47-.07-1.61-1.44-1.14a11.63,11.63,0,0,0,.12-2.57c2.74-.48,1-4.74,4.07-5.72-.36-.8.24-3,.61-5.32s.53-4.58-.56-5.44c.34,0,.65-.42.38.53.88-1.85,1.78-3.72,1.57-5.68l2-.34c-.37-1.65-.81-3.31-1.24-4.94,1.75-2.34,2.6-3.35,3.37-.36a42,42,0,0,1-.2-6,18.51,18.51,0,0,0-.57-5.25l1.13.45c.31-2-.92-5.34.19-6.43,1.3-2.11,2-7.74,1.43-14.44-.08-1.67-.39-3.42-.62-5.18-.16-.88-.36-1.77-.53-2.66s-.4-1.78-.65-2.67c-.42-1.78-1.08-3.51-1.64-5.23-.33-.84-.7-1.67-1-2.49-.17-.41-.32-.83-.51-1.22l-.57-1.17c-.73,2-1.25.56-2-1.29A14,14,0,0,0,258.21,12c-.54-.7-1.2-1-1.75-.58,0-1.13-1.15-2.8,1-1.81-2.94-2.11-5-3.74-7-5A9.24,9.24,0,0,0,243.89,3c-.48-1,1.74-.72,1.25-1.39-.59,0-2.27,0-2.81-.61s1.13-.43,2.3-.43c-3.43-1-5.43-.62-6.63.12a5.39,5.39,0,0,0-2.06,3.09c-2.94-1.55-4.63-1.46-6.88,0-1-.8-2.86-1.68,1-1.85a51.51,51.51,0,0,0-7.42-.32c-3,.13-5.75.69-5.74,1.65-.72-.42-2.93.24-3.43.55A56.48,56.48,0,0,0,204,5.55l1.3,0a3,3,0,0,1-2.67,1.8c-.58.07-1.22.09-2,.17a12.18,12.18,0,0,0-2.43.59l0-.26c-1.09.09-2,.18-2.68.28s-1.22.28-1.65.41a7.39,7.39,0,0,0-1.65.74,6,6,0,0,1-1.64.69,33,33,0,0,1-4.22,1l1,1.13a1.34,1.34,0,0,1-1,1.56,13,13,0,0,1-3,.78c-2.44.38-5.38,1.11-7.19,2.83l1.94-.18a3.21,3.21,0,0,1-2.1,1,16.59,16.59,0,0,1-3.1.2c-1.12,0-2.29,0-3.32,0a7.06,7.06,0,0,0-2.52.57c-.64.14.5-.9,1.07-1.56-6.88,2.81.31,2.05-3.62,5.59-1.39-.18-.61-2.83-3.53-.71a5,5,0,0,0-1.83,1.66c-.71.92-1.49,2.14-2.38,3.37-.44.62-.9,1.25-1.39,1.86s-.95,1.22-1.46,1.78a9.43,9.43,0,0,1-3.33,2.51c1.33-.18,2.61-.35,1.3,1.75-1.17,1.43-3.45,2.67-5.47,4.16s-3.77,3.16-3.91,5.23c-.47.21-.74.21-.9.1-.66,1.29-2,3.19-3,5.06s-2,3.72-1.94,4.79c-1.39-.27-2.62.56-3.73,1.91a26.09,26.09,0,0,0-3,5,33,33,0,0,1-2.58,4.7c-.81,1.15-1.65,1.67-2.59,1l-2.3,3.62-2.24,3.65L120,74a17.4,17.4,0,0,0-2.86,5.28,12.67,12.67,0,0,0-.49,3.6c-.93.91-.81-.1-1-.31-4.91,6.34-5.14,7.17-6.44,14.07l-1.64-.13c-.06,1-1.94,3.24-4.1,6.19S99,109.36,98,113.24a1.25,1.25,0,0,1-.21-1.07c-1.22,4.3-4.46,8.54-7,12.4s-4.23,7.32-2.43,9.92l-1.18,5.79c3.47-6.6,1.67,2,3.76-.44-.91,2.78-4.56,6.22-3.36,2.83l.47-.4c-2-2.37-4.66,8-6.32,7.1-5.71,13.5-12.44,26.21-17.4,39L67,187.7l-1.81,4.43c-.91,1-2.2,1-.91-2.19-1.81,1.25-1,5.74-.6,6-3.15,6-1.5-3.34-2.26-1.43l-.81,2.67.46-.5c0,2.43.88,2.94-.61,6.76-1.29,2.3-1.72.8-2.15,1.73-.14,0-.33.25-.59,1.46l-2.17,5.63,2.43-1.7c-.08,2.8-2,5.31.81,3.34-2.1,1.42-4.2,6.65-5.93,11.78s-3.12,10.18-4,11.22c.05,3.95-1.12,7.45-2.63,11.76.68-1,2.75-1,1.33,2.65-3.41-2.58-3.81,6.36-7.51,8.55,2.66-2.16-2.8,10.87,1.1,7.38-1.26,3.06-1.5-.24-3.12,1.88-.76,7.94-5.86,16.27-8,25.74.47.29,1.68-1.05,1.88,1.16l-3.91,4.21c-.26,1.91,2.46,2.5-.23,5.39.56-.36,1.4-.89,1.23.39-7.49,17.63-7.85,37.91-17,55.48,1.6-2.3,1.29-.58.87,1.36.54-1.2,1.26.33,2,.25l-3.79,7.38c1.59,1.88-1.82,8.45-.16,9.69l.24-2.56c1.42,3.8,5.92-3.5,8.61-2.36-1.63-4.27,5.94-8.83,3.85-15.7.89-1.2.62,1.35,1.44.79-.82-1.81-.63-3.72.75-7l.2.46c2.07-9.67,4.28-13.49,7.84-24l-1.58.43a11.45,11.45,0,0,1,2-3.62c-1.4-3.19-1.81,6.45-3.48,3.44,3.57-2.34,4.33-16.26,8.08-17.46,1-3.53-1.88.6-.89-2.93l1.11-.7-.86-1.19c.82-2.27,2.22-3.15,3-3a11.71,11.71,0,0,0-.34,2.27c1.84-2.72,2-8.56,2.63-9.49l-1.48,3.24c1.88-9.86,6.4-21.25,7.46-31l-.86.51c1-7.42,2.42-5.45,4.27-13.35l.06.32a14.94,14.94,0,0,1,.91-6c.14,2.18,2.62-3.21,2.64-.39,1.16-8,.21-4.08-.55-9.89l1.43-.81c-.39-2-.85-2.34.15-6.28-.14,3.46,2.41-1.92,2.45,2,5-7.28,1.68-12.74,6.31-15.27-1.64-4.69-4,6.39-3.92,4.12-1.54,1.4-1.13-3.8,0-6.22.95-2.55,5.24-3.07,7.46-9.51-.25.64,0,.76-.28,1.39,1.6-2.13.68-5.06,3-7.57-1.15-2.28,1.5-3.77-.56-5.06l-1.63,6.06c.63-3.54-.85-7.64,2.49-12.65a11.29,11.29,0,0,1,.17,3.69c1.25-1.35.72-3.24,2-4.65,2,1.31-2.19,7.3-1.79,11.49,1.57-1.37.87-7.33,2.62-4.64-2.11-3.72,2.73-6.13,2-11.32l1.22.79a11.19,11.19,0,0,1,.49-3.65l.85,2.93c-.14-4.05,3.88-6.19,4.41-9.81-2.72,7-2.22.93-4.35,3.49,1.64-9.3,5.4-3.57,8.66-13.36-.34,1.36-2.77,4.52-2.55,2.25a17.52,17.52,0,0,1,3.67-4.71c2.37-6.41-1.76.4-1.44-2.62,2.5-1.48.64-3.38,1.33-6.35l1.34.55c4-6.78-2-3.11,1.92-9.09l.62,3.53,1-3.56,1.19,1.36c.5-4.13,1.32-5.12,3.36-8.46-1.3.4-2.19-1.57-.76-4.72,1.79-1.76.68,1.77,2.59-2.73.35,1.39.86,3-1.26,4.31.33.4.36,1.37.69,1.77,2-1.87,2.92-5.64,3.66-7.24A6.3,6.3,0,0,1,103.5,132c.4-2.42.85-4.82,1.29-7.24,1-.76,1,.23,1,1.2.5-1.35.32-2.55,1.16-4.48.81,1,1.94,1.43,1.14,4.35.58-2.21,1.21-4.4,1.84-6.59.66-.17,2.81-2.43,2.8-1.45,2.31-3,2.2-9.14,5.39-13a3.65,3.65,0,0,1,.34-1.89c1.26-1.95,2.71-3.63,4-5.52a19.67,19.67,0,0,0,3.21-6.71l3.42-1.53c1.84-3.88-4.47,2.18-1.39-4.31,2.13-4.64,2.53-.63,4-1.8a27.46,27.46,0,0,1,1.19-5.13,11.19,11.19,0,0,1,3.91-5.24C136.21,74.1,135.28,74.92,134.6,76.19Zm33-40.07c-.55.9-1.4,2.9-2.52,2.74C164.86,36.89,166.06,36.88,167.64,36.12Zm70.78-25.19c-.82.32-1.82-.16-3-.88A6.06,6.06,0,0,1,238.42,10.93Zm-68.68,184a.47.47,0,0,0,.07-.12C172.19,194.1,171.33,194.31,169.74,194.88Zm-4.7,1.77c-.36.4-.23.57.05.65.14-.48,1.14-1,2.31-1.49C166.92,195.66,166.22,195.7,165,196.65ZM58.67,205.86l.68-.76C59,207.25,58.87,206.56,58.67,205.86Z"/><path class="cls-1" d="M229.69,11.78a1.44,1.44,0,0,1-.38-.81C228.92,11.21,228.91,11.48,229.69,11.78Z"/><path class="cls-1" d="M118.18,104.61a1,1,0,0,1-.09.13.68.68,0,0,0,.15.27Z"/><path class="cls-1" d="M216.06,141.22a4.58,4.58,0,0,1,1.76-.95C217.58,140,217.07,140.15,216.06,141.22Z"/><path class="cls-1" d="M141.9,209.66l2.83-1.55a6.5,6.5,0,0,1-2.84.63C142.07,209,142.82,209.26,141.9,209.66Z"/><path class="cls-1" d="M113.15,209.7c-.39.3-.91.29-1.3.57l.3.62C114,210.33,115.14,209.41,113.15,209.7Z"/><path class="cls-1" d="M137.44,206.17c-.66-1-2.36,0-4.35,1a3.84,3.84,0,0,1,.36-.14C133.41,208.83,135.44,207.5,137.44,206.17Z"/><path class="cls-1" d="M132.62,207.35a12.54,12.54,0,0,1-1.9.72C130.7,208.8,131.54,207.93,132.62,207.35Z"/><path class="cls-1" d="M159.74,200.19c-1.09.18.07,1.7-.69,1.52C158.66,203.63,164.6,196.86,159.74,200.19Z"/><polygon class="cls-1" points="134.39 203.01 135.64 204.16 136.37 202.61 134.39 203.01"/><path class="cls-1" d="M150.73,197.63l-3.34,1c.15.21-.2.52-.66.82C148.73,198.72,151,198,150.73,197.63Z"/><path class="cls-1" d="M146.73,199.49a8.17,8.17,0,0,0-2.51,1.28A18.14,18.14,0,0,0,146.73,199.49Z"/><polygon class="cls-1" points="138.68 200.96 139.74 200.87 142.05 200.05 138.68 200.96"/><path class="cls-1" d="M183.75,179.93l2.91-2.5c0-.64-1-.31-2.06.65C184.05,178.89,183,179.85,183.75,179.93Z"/><path class="cls-1" d="M171.91,182.53a3.43,3.43,0,0,1,2,.12L173,181Z"/><path class="cls-1" d="M180.89,176.38c0-.65,3.61-4.26-.2-1.52C180.67,175.49,177.83,178,180.89,176.38Z"/><polygon class="cls-1" points="223.66 139.93 223.11 140.72 225.61 142.48 223.66 139.93"/><path class="cls-1" d="M241.63,93.63c-2.4,3.68,1.35,1.71-1.1,4.93.24,1.23,2-2.63,2.14-1.42C243,94.41,244,93.32,241.63,93.63Z"/><path class="cls-1" d="M242.67,97.14a14.09,14.09,0,0,0-.13,1.42A5.17,5.17,0,0,0,242.67,97.14Z"/><polygon class="cls-1" points="8.43 375.38 7.16 378.06 8.58 376.47 8.43 375.38"/><path class="cls-1" d="M9.4,381.3l-2.05.23,1.33,2.09C8.74,383,8.86,381.69,9.4,381.3Z"/><path class="cls-1" d="M175.91,34.46l-.12-.49c-.63-.16-1.17.15-2.18.89C174.37,34.7,175.13,34.56,175.91,34.46Z"/><polygon class="cls-1" points="148.92 59.32 149.36 58.84 147.23 58.68 148.92 59.32"/><path class="cls-1" d="M132.41,86.41c.76-1,1.27-2.54,2-3.59C133.18,85.36,130.36,85.53,132.41,86.41Z"/><path class="cls-1" d="M77.31,375.9c-1.37-.83-1.47.53-1.8.62C78.06,377.52,77.4,375.58,77.31,375.9Z"/><path class="cls-1" d="M102.62,382.63l-.56.38c1.33-.1,2.64-.14,4-.37C104.88,382.72,103.76,382.66,102.62,382.63Z"/><path class="cls-1" d="M126.55,385.3c-1.17-1-3.31-1-5.75-.81a20.68,20.68,0,0,1-7.24-.27l-.63-.56c-.72.5-1.44,1-2.17,1.45,1.31.17,2.75.13,4.19.17s2.9.07,4.32,0,2.77-.14,4-.13c.61,0,1.2,0,1.75.07S126.09,385.23,126.55,385.3Z"/><path class="cls-1" d="M140.19,388.64c-.48-.32.21-.65.28-.68a16.57,16.57,0,0,1-3.46.88,4.19,4.19,0,0,1,.6.14C138.15,388.87,138.91,388.86,140.19,388.64Z"/><path class="cls-1" d="M137.61,389c-2.67.39,1.85.47,0,0Z"/><path class="cls-1" d="M149.66,385.88l-3.24,1.7c.84.28,4-.51,2.91.17C152.79,386.32,151.87,386.08,149.66,385.88Z"/><path class="cls-1" d="M152.39,383.44c-.54.3-1.09.54-1.64.82C151.11,384.36,151.61,384.32,152.39,383.44Z"/><path class="cls-1" d="M147.23,386l3.52-1.71c-.59-.19-.83-.84-1.63.72C149.25,384.29,148.7,385.08,147.23,386Z"/><path class="cls-1" d="M145,386.19c-2-.05-4.53.15-1.29-1.26C137.35,386.52,138.49,387.83,145,386.19Z"/><path class="cls-1" d="M127.71,383l-2.46-.52-2.12.66a11.75,11.75,0,0,1,2.75.1C126.91,383.33,127.8,383.36,127.71,383Z"/><path class="cls-1" d="M170.51,377.72c0-.49-1.69-.39-2.22-.76l-2,1.81C167.61,378.35,170,377.25,170.51,377.72Z"/><path class="cls-1" d="M168.29,377a35.72,35.72,0,0,0,2.88-2.76l-1,.68-.78.5a6.68,6.68,0,0,0-1,.77C168,376.56,168.06,376.8,168.29,377Z"/><path class="cls-1" d="M152.19,381c-.86.66-1.78,1.13-2.69,1.71l-2.78,1.65,3.35-1.83c.55-.31,1.1-.6,1.64-.92l1.59-1.05Z"/><path class="cls-1" d="M182.69,368.17c-.28.81-.65,1.55-1,2.33.33-.66.68-1.3,1-2l.86-2.05Z"/><path class="cls-1" d="M189.36,360.33c-.32,1.92,2.56-1,1.92.78a21.38,21.38,0,0,0,1.84-3.58c.42-1.2.72-2.36,1-3.44a14.67,14.67,0,0,1-1.77,3.15A24.36,24.36,0,0,1,189.36,360.33Z"/><path class="cls-1" d="M195.06,350.51c-.18.54-.32,1.11-.46,1.72l-.48,1.86a17.82,17.82,0,0,0,.62-1.73A15.87,15.87,0,0,0,195.06,350.51Z"/><path class="cls-1" d="M176.64,370.36c.4,0,1.31.18,3.2-1.09l-2,.08Z"/><path class="cls-1" d="M177.75,369.35h.06l2.56-2.17Z"/><path class="cls-1" d="M176.34,370.61l.3-.25C176.44,370.36,176.35,370.38,176.34,370.61Z"/><path class="cls-1" d="M161.77,378.18c.42-.41,1-.88,1.5-1.34a8.25,8.25,0,0,0,1.24-1.4c.55-.81.33-1.22-1.81-.58C161.7,376.33,164.3,375.75,161.77,378.18Z"/><path class="cls-1" d="M173.85,370.54l-3.46,2.16c.26.23,1.14.2.43,1.15Z"/><path class="cls-1" d="M175.16,369l-.63.81-.68.75a14,14,0,0,0,1.27-.84Z"/><path class="cls-1" d="M190.29,356a18.27,18.27,0,0,1,1.09-2.67c.43-.9,1-1.78,1.48-2.78-.67,1-1.43,1.93-2.11,2.92l-1,1.47-1,1.42C188.84,356.89,188.83,358.16,190.29,356Z"/><path class="cls-1" d="M184.56,362.87l.2-.36C184.52,362.63,184.37,362.76,184.56,362.87Z"/><path class="cls-1" d="M200.83,330.62c-.1.1-.21.17-.31.27a2.31,2.31,0,0,1,.19.14Z"/><path class="cls-1" d="M188.28,356.58a8,8,0,0,0-1.94,3.36c.78-1.08,1.47-2.32,2.36-3.54C188.64,356.18,188.56,356.09,188.28,356.58Z"/><path class="cls-1" d="M197.27,344.72c-.64.74-1.28,1.6-1.94,2.51C196.08,346.6,197.44,345.16,197.27,344.72Z"/><path class="cls-1" d="M185.42,362.27c0,.09-.08.16-.13.25C185.88,362.24,185.73,362.21,185.42,362.27Z"/><path class="cls-1" d="M185.42,362.27a13.67,13.67,0,0,0,.92-2.33,25.67,25.67,0,0,0-1.58,2.57A3.11,3.11,0,0,1,185.42,362.27Z"/><path class="cls-1" d="M194.13,322.84c1.1.44,1.4,4.93-.86,8.13-.06,1.84.94,2.51,2.42,2.39a8.8,8.8,0,0,0,4.83-2.47,1,1,0,0,1-.61-.78,19.23,19.23,0,0,1-.11-3.59,11.62,11.62,0,0,0-.9,1.73c-.38.76-.83,1.62-1.23,2.33-.82,1.41-1.54,2.21-1.64.51a10.94,10.94,0,0,1,1.09-4.14,12.87,12.87,0,0,0,1.44-2.09c-1,.89-1.08-.8-1.46-2.6s-.8-3.67-2-3.28c0,1.44.1,2.89.1,4.35C194.91,323.35,194.62,321.73,194.13,322.84Z"/><path class="cls-1" d="M198.16,338.19l-.46,1.6a32.43,32.43,0,0,1,3.42-5c.26-2.85-.1-3.52-.41-3.8-.38,1.31-.73,2.62-1.2,3.9s-.85,2.59-1.38,3.85Z"/><path class="cls-1" d="M194.74,346.66c-.61-1.77.51-5.52-1.76-3.92a9.07,9.07,0,0,0-1,3.68,5.67,5.67,0,0,1-.25,2.57c3.4-7-.42,2.33,2.9-2.34a38,38,0,0,1-1.72,3.94c.81-1.18,1.64-2.31,2.47-3.36l-.16.13v0h0c-.31.23-.45.28-.19,0a.58.58,0,0,1,.06-.15,1.26,1.26,0,0,1-.28-.54c1.2-2,.47-.18.28.54,0,.05.07.13.13.17l0,0c.93-2.52,1.85-5,2.53-7.57a29.62,29.62,0,0,0-1.19,2.72C196,343.6,195.45,344.94,194.74,346.66Z"/><path class="cls-1" d="M164.71,370.42a.36.36,0,0,1,.36.14C165.39,370.18,165.48,370,164.71,370.42Z"/><path class="cls-1" d="M167.67,369.47c-.17.23-.27.52-.51.87a4.51,4.51,0,0,1-1.48,1.07c-1.51.45-.32-.53-.61-.85-.7.82-2.7,2.69.48,1.52l.36-.42c.7-.31,1.52-.51,2.26-.81s1.51-.52,2.18-.71c1.33-.37,2.3-.53,2.13-.3A11.54,11.54,0,0,0,167.67,369.47Z"/><path class="cls-1" d="M182.36,359.71l1.78-2.65,1.6-2.74c-.94.65-1.84,1.3-2.77,1.91l.63.28C181.13,359.09,182.25,359,182.36,359.71Z"/><path class="cls-1" d="M201.64,330.05l1.1,1.18-.45-2.09-.55-2.07C201.72,328.06,201.73,329.06,201.64,330.05Z"/><polygon class="cls-1" points="203.12 321.64 204.25 322.13 203.88 319.79 203.12 321.64"/><path class="cls-1" d="M229.47,408.34l1.47-.78A9,9,0,0,0,229.47,408.34Z"/><path class="cls-1" d="M217.87,410.81l-.2.63C218.17,411,218.36,410.76,217.87,410.81Z"/><path class="cls-1" d="M68.85,274.23c-1.1,1.1-2.44,2.26-3.25,3.2s-1.12,1.65-.43,1.7l1.53-.4a9.79,9.79,0,0,1,1-2.59A14,14,0,0,1,68.85,274.23Z"/><path class="cls-1" d="M120.63,391.46l-.35-.77-2.14-.1Z"/><path class="cls-1" d="M125.34,388.3l1,1.34,1.08,1.29A25.91,25.91,0,0,0,125.34,388.3Z"/><path class="cls-1" d="M273.28,366.8c-.17-.73-.36-1.46-.59-2.19C271.71,367.3,272.74,366.35,273.28,366.8Z"/><path class="cls-1" d="M175.26,242.33a20.06,20.06,0,0,0-2.53-2.47,16.18,16.18,0,0,0-2.37-1.77,15.09,15.09,0,0,1,1.57,1.67c.46.54.88,1,1.27,1.44C174,242,174.61,242.51,175.26,242.33Z"/><path class="cls-1" d="M228.12,423c1.07-.5,1.49-.88,1.38-1.15C228.41,422.31,227.81,422.71,228.12,423Z"/><path class="cls-1" d="M163.59,234.73c.39.28.77.54,1.15.83.91.3,1.83.59,2.76,1a31.45,31.45,0,0,1,2.86,1.54,16.75,16.75,0,0,0-3-2.26A9.41,9.41,0,0,0,163.59,234.73Z"/><path class="cls-1" d="M164.54,338.65a4.55,4.55,0,0,1-.21.51C164.5,339.23,164.53,339,164.54,338.65Z"/><path class="cls-1" d="M166.92,411.57c-.43-.63-1-1.72-1.58-2.74A13.24,13.24,0,0,0,166.92,411.57Z"/><path class="cls-1" d="M202.69,287.6c.43,1.76.2.25,0,0Z"/><path class="cls-1" d="M199,296.86c-.17-.35-.39-.6-.7-.6A1.08,1.08,0,0,1,199,296.86Z"/><path class="cls-1" d="M144.54,238.73l-.14,0C144.87,239,144.79,238.94,144.54,238.73Z"/><path class="cls-1" d="M202.63,290.37a18.86,18.86,0,0,0-.06-2.33A19,19,0,0,0,202.63,290.37Z"/><path class="cls-1" d="M203.16,289.91c.06.62.14,1.1.16,1.57C203.56,291.68,203.7,291.45,203.16,289.91Z"/><path class="cls-1" d="M202.08,285.15a15.47,15.47,0,0,1,.49,2.89c0-.37.06-.53.12-.44C202.57,287.08,202.41,286.35,202.08,285.15Z"/><path class="cls-1" d="M251.39,269l-.25-.24C249.53,268.77,250.19,268.9,251.39,269Z"/><path class="cls-1" d="M78.06,318.33c0-.07-.07-.1-.1-.16v.24Z"/><path class="cls-1" d="M80.39,323.45a6.61,6.61,0,0,1-2-2.52,7.73,7.73,0,0,1-.38-2.52c-1.08.87-2.16,1.77-3.23,2.7C76.57,322,78.53,322.73,80.39,323.45Z"/><path class="cls-1" d="M253.92,395.54l-3.67,1.29a23.1,23.1,0,0,1,1.77-2.62c.55-.68.95-1.29,1.21-1.67.51-.8.28-.94-1.49-.51.57.89.17,1.88-.74,2.91a11.66,11.66,0,0,1-1.67,1.59c-.66.5-1.38,1-2.1,1.52s-1.5,1-2.19,1.44-1.32,1-1.88,1.39c-1.08.88-1.71,1.81-1.38,2.79-.87.12-1.77.17-2.63.26.66-.25.67-.52,1.32-.77-2.59.1-3.08,1.14-3.77,2.36a6.92,6.92,0,0,1-1.38,1.94,7.11,7.11,0,0,1-3.27,1.55c-2.25.38-3.91.2-2.58-.67-.75.38-1.49.79-2.26,1.16l-2.31,1.07c-1.44.27-1.24-.51.18-.77-1.21.37-2.46.65-3.7,1s-2.49.55-3.74.8l0-.12a27.52,27.52,0,0,1-4.54,2.65c-2-.36,1-.54.39-1-1.39.52-2.81.91-4.23,1.37-1.82-.93,1.67-2.17,4.6-2.36-2.19-1.77-3-1.51-4.42-.9a9.21,9.21,0,0,1-2.78.76,10.67,10.67,0,0,1-2.14,0,18.28,18.28,0,0,1-2.83-.53c1.33-.21,2.67-.35,4-.61-2.63-2.21-5.69-1.31-10.09-2.95.51.42,2.7,1.39,4.24,2.35.77.49,1.37,1,1.49,1.38s-.25.82-1.41,1a10.66,10.66,0,0,0-5.59.19c.05-1.44-2.41-1.22-5.48-1.42l.4-1.89c-3.32.19-3.18,1.22-5.23,1.8a6.24,6.24,0,0,1-3.54-1.6,6.55,6.55,0,0,1-1.26-2.09c-2.84-.67-2,.08-1.22.92s1.36,1.73-2.13,1.24c-4.7-1.7-8.19-1.72-14.22-2.37-3.09-1.69.93-.92-.08-1.83l-3.38.48c-.7-.27-.31-.65-.12-.82-2.6-.36-.85,1.78-4.85.75-.9.74-2.62-.72-4.67-2.49a22.38,22.38,0,0,0-3.36-2.53,8.12,8.12,0,0,0-3.89-1.38c-.84-1.06,1.1-.75,1.11-1.58-1.71-.43-2.89-.86-3.84-1.17s-1.63-.53-2.29-.72c-1.35-.36-2.52-.69-5.55-1.38-1.15-1.23-2.21-2.59-3.3-3.86,1,1.63.39,2.13-1.06,2.05a13.09,13.09,0,0,1-2.66-.49c-1-.29-2.06-.66-3.1-1a34.08,34.08,0,0,0,1.57,3.25c-2-1.12-4-2.18-5.93-3.38-.42-.77.53-.83,1.87-.74-.45-.18-.88-.33-1.23-.44-1.38-2.1.3-2.13,2.27-1.87l1.1,2.41c2,.1,4,0,4.41-1.1a7,7,0,0,1-2-.9c.52,0,.9-.05.87-.32s-.84-.37-2-.64c.06-.85.13-1.72.22-2.59l-.81.43-2.77-3.22L115.6,379l-4.41-1.82a45.64,45.64,0,0,1-4.57-2.07,32.9,32.9,0,0,1-4.82-2.93,35.67,35.67,0,0,1-5-4.41c2.75.92,2.32-1.21,3.85-2.27,0,1.66,1.42,3,3.14,4.32s3.83,2.73,5.36,4.68c-1.62-2-.58-2.21.09-2-1.2-.87-2.45-1.71-3.63-2.63L102,367.2c1.28-.8-.3-2.19-1.23-4.36-1.29,3.24-5.67-3.95-8.34-6.51a1.16,1.16,0,0,1,1.57-.11,10.6,10.6,0,0,1,2.79,3.21c-.54-2.58-2.05-3.38-3.72-4.15s-3.29-1.59-3.73-4.12c.59.9.76,1.48,1.42,1.56a12,12,0,0,1-2.91-4.19c-.66-1.54-.89-2.75-.15-2.34l.54.92c-1.67-3.14-4-8-6.18-12.06-.51-1-1-2-1.53-2.92-.26-.45-.51-.88-.76-1.28s-.45-.8-.67-1.15c-.89-1.4-1.73-2.29-2.42-2.35a13.5,13.5,0,0,1,3.85.15c-2.08-1.48-4-3.1-6-4.8-1-.84-1.89-1.75-2.85-2.66s-1.94-1.84-2.8-2.82c1.18.37,2.85-.8,4.53-1.31a3.66,3.66,0,0,1,2.42-.05A4.3,4.3,0,0,1,78,318.17a19.3,19.3,0,0,0-1.35-6.95c-.2,1.12-2.68,3.25-3.16,1.73A24.59,24.59,0,0,0,74.82,309c.1-.44.17-.91.33-1.6s.48-1.59.94-2.88c-.2.83-1.17.84-2.1.28a3.45,3.45,0,0,1-1.73-3.09c.51.42,3.4-.18,3.73.77l-1.6-3.3c-.53-1.13-.92-2.27-1.39-3.46.44,1.74,2.82.55,3.9-.72-.81.54.92-5.38,1.16-7l-1.44,2.41a10.22,10.22,0,0,0,.58-4.27,14.4,14.4,0,0,0-.55-3.32,13,13,0,0,1-.35-1.67,10.47,10.47,0,0,1,0-1.79,9.28,9.28,0,0,1,1.4-4.42c.14,1.22,2.7,3.93,4.86,1-.15-.57-.42-1.53-.68-2.78a26.73,26.73,0,0,1-.46-4.43,18.4,18.4,0,0,1,2.88-10.43L86,258c1.07-1.58,2.25-3.08,3.45-4.6-.27,1.06-.67,2.54-1.17,4.18s-1,3.51-1.41,5.43-.84,3.81-1.19,5.53-.57,3.27-.8,4.57a4.62,4.62,0,0,1,1.8-1c.37-.16.71-.54,2-2.1.81-.23.71.41.35,1.21a12.79,12.79,0,0,1-1.26,2.27,60.25,60.25,0,0,1,6.41-6.37c-.84-.56,0-2.2,1.1-3.72s2.25-3,1.58-3.56a61.7,61.7,0,0,0-6.14,8.52c-.87-.52-1-2.6,0-5.13a16.41,16.41,0,0,1,6.09-7.5c1.92-.42,1.06,3.68,1.61,4.11A9.59,9.59,0,0,1,100.8,257c.61-.52,1.24-1,1.76-1.37a2.65,2.65,0,0,1,1.17-.52c-.65.81-1.25,1.65-1.84,2.49,1.75-.76,2.71-2.1,3.86-3.41a10.43,10.43,0,0,1,2-1.75,7.08,7.08,0,0,1,3-.9,11,11,0,0,1,3.19-.17c1.12,0,2,0,1.9-.58-3.19-1.18-6.76-7.31-5.68-9.71.33,0,2.68-.5,5.25-.68a24,24,0,0,1,6.4.07c1.6.49.84,1.81.11,3.1s-1.44,2.62-.15,3c-.08-.57,1.13-1.61,1.67-2,.88,0,.82.46,1,.77s.52.43,2.25-.09c.12-2.22,7.32-1.24,1.32-2.07a9.11,9.11,0,0,1,3.74-.67,30.28,30.28,0,0,0,4.26-.15c-.72-.57.11-1.85,1.68-2.94a13.36,13.36,0,0,1,5.86-2.3c-.25.5.58,1.23,1,1.57a36.61,36.61,0,0,1,9.49,2.06,77.64,77.64,0,0,1,8.46,3.55,4.06,4.06,0,0,0,.62.73c.27.31.58.66.82,1,.49.64.71,1.18-.11,1.23.51.08,1.05.07,1.7.18a6.6,6.6,0,0,1,2.27,1c2.35,3.7-4-2.37-2.62,1.13.41-.42,1.75-.06,3.33.63.77.38,1.6.84,2.43,1.28s1.56,1,2.26,1.32a1.94,1.94,0,0,0-.6-1.66,8.74,8.74,0,0,0-2.16-1.7c-.44-.27-.89-.55-1.37-.79l-1.47-.62a19.33,19.33,0,0,0-2.63-.91,2.75,2.75,0,0,1,1.8-1.17,9.18,9.18,0,0,1,3.26,0c.33,0,.67.11,1,.19s.69.2,1.05.32c.73.24,1.49.54,2.29.89a17.48,17.48,0,0,1,2.39,1.29,19,19,0,0,1,2.45,1.67,11.23,11.23,0,0,1,2.18,2.3c.28.52.23.8.07.95-.31.31-1.06.15-.58.45.88,1.18,1.73,2.12,2.45,2.95a20.45,20.45,0,0,0,2,2.09,32.14,32.14,0,0,0,3.3,2.64,11.38,11.38,0,0,1,2.76,2.67,14.8,14.8,0,0,1,2.29,5.25c.06,2.15-.7,2.49-1.5,2.48s-1.71-.38-2.09.24a23.52,23.52,0,0,1-1.49-3c-.19-.47-.34-.92-.48-1.36s-.31-.85-.44-1.26c-.27-.83-.5-1.62-.77-2.4a11.72,11.72,0,0,0-1.11-2.21l.78,2,.67,2a18.77,18.77,0,0,1-3.88-5.46,17.27,17.27,0,0,0,1.82,4.11c.46.93,1,2,1.55,3.06s1.08,2.31,1.68,3.53c2.25,5,4.1,10.88,4.43,15.23.93,1.34,2,3.87,2.35,2.49-.23-.89-.53-1.78-.83-2.65.33-1.4,1.08-.24,1.72.85s1.08,2.12,1,.29c1.65,3.52,3.85,7.67,3.53,13.21L198.89,302c.58-.14.81-3.6.1-5.05.49,1.08.16,3.2-.19,5.3a12.73,12.73,0,0,0-.19,3,3.53,3.53,0,0,0,.9,2.37c.43-1.25.86-2.53,1.2-3.82.29,1,.62,2,.9,3.07s.63,2.22.87,3.39a18,18,0,0,1,.08,7.31c1-1,1-1.34,1-1.78s.13-1,1.27-2.77c-.7.74-1,.3-1.11-.68s0-2.52,0-4c.06-3-.12-5.67-1.39-3.18a9.75,9.75,0,0,0,1.44-5.15c0-.87,0-1.77.15-2.76a24.74,24.74,0,0,1,.62-3.37c-.58.24-.9,1.84-1.21-2.38a4.78,4.78,0,0,1-.68-.82v-.29l0,.24c-.12-.16-.15-.17,0,.09A4.84,4.84,0,0,1,202,293a17.37,17.37,0,0,1-2.21-5,30.92,30.92,0,0,0-2-5.11c-.42-2.41,1,.79,1.2-.65l-2-2.87c.62-.36.64-2.08.79-3.07s.54-1.24,1.89,1.44c-.58-1.69-1.12-3.39-1.75-5.06-.45-3.2-2-7.39-3.86-9.5-.93-2.45-4.6-4.81-2.5-3.47a70.6,70.6,0,0,0-5.56-6.54l.22-.27c-.66-.84-1.35-1.65-2.07-2.45s-1.57-1.52-2.38-2.26-1.7-1.44-2.58-2.14-1.75-1.4-2.71-2c-3.68-2.72-7.65-5.2-11.76-8.36-2.88-.85-5.82-1.58-10.48-3-.22-.45-.46-.91-.7-1.34a24.21,24.21,0,0,1-3.35-.57c-1.24-.21-2.57-.52-3.84-.7a26.15,26.15,0,0,0-3.46-.33,4.06,4.06,0,0,0-2.16.45c-1-.82-2.66-1.15-4.68-1.29-1,0-2.09,0-3.23.11s-2.31.31-3.51.51c-4.77.87-9.54,2.64-12.68,3.37l.24,1.52a47.28,47.28,0,0,0-12.41,6.11l.89,1.05c-1.77,1.52-4.43,2.63-7.36,4.06-1.49.67-3,1.49-4.56,2.34A33.32,33.32,0,0,0,89,250.93c.06-.72,1.59-1.77,2.84-2.27-4.41,1.35-7.68,4.88-10.36,8.58s-4.81,7.58-8,10.32A11.59,11.59,0,0,1,71,271.77a1.79,1.79,0,0,0,.18-.48c-.11.18-.27.45-.42.73l-1,1c-.32.37-.63.76-.94,1.17.65-.65,1.24-1.26,1.71-1.82a18,18,0,0,0-1.12,2.64c-.37,1-.76,2.14-1.06,3.27l-1.68.41c0,.19-.11.33-.15.53-1.29,2,0,2,1.45,1.19a14,14,0,0,0-.16,3.13c-1.34.53-1.55,2.07-1.77,3.64s-.28,3.21-1.75,4.25c.39.86.36,3.73.49,6.54.32,2.8.77,5.52,2.14,6.05-.33.08-.46.73-.53-.44-.2,2.42-.41,4.91.6,7l-1.72,1.24c1,1.7,2.16,3.29,3.24,4.87-.31,1.67-.44,2.85-.85,3.29s-1,.09-2-1.35c1.94,3.6,2.45,5,3.07,6.36.29.65.58,1.27,1,2.08.22.4.49.85.82,1.37s.78,1.09,1.3,1.77l-1.23.08a23.22,23.22,0,0,0,2,3.59c.77,1.18,1.38,2.3,1.19,3.13-.11,2.82,2.42,8.79,6.06,15.26s8.36,13.43,11.72,19.28c.57-2.1,1.22-.65,2,1.17s2,3.93,3.13,3.25c-.12,1.12.75,2.85-1.21,1.68a43.6,43.6,0,0,1,3.2,3.28c.89,1,1.62,2,2.38,2.88a11.71,11.71,0,0,0,5.52,3.94c0,1.13-1.91-.11-1.74.72.53.24,2.1.95,2.29,1.79s-1.21-.17-2.26-.64c2.65,2.34,4.53,3.15,6,3.13a5.44,5.44,0,0,0,3.46-1.51c1.89,3.15,3.47,4,6.37,4.35.23.69.64,1.48.55,1.82s-.74.26-2.51-1a80.63,80.63,0,0,0,6.52,5.2c2.85,1.92,5.62,3.44,6.25,2.65.39.8,2.83,1.84,3.48,2,4.68,2.69,5,3.1,9.92,5.2l-1.2-.92c2.84-1.17,4.2,1.34,8.28,2.7l-.2.18a28.86,28.86,0,0,0,4.44,2.24,8.26,8.26,0,0,0,2,.51c1.05.13,2,.36,6.44,2.55l-.13-1.53c.83-1.37,2.73-.41,5.2.88s5.55,2.85,8.41,2.7l-1.84-1.14c1.59-.28,3.48,1.15,5.44,2.63s4,3.16,5.52,3.52c.65.34-1.12.31-2.1.41,4,1.37,4.36.84,4.41.11s-.1-1.8,2.94-1.8c1.07,1.07-1.63,2.51,2.52,2.9a5.76,5.76,0,0,0,2.86,0c1.32-.22,2.95-.55,4.67-.94,3.46-.69,7.27-1.5,10.18-.77-1.32-.68-2.58-1.36.17-2.18,2.14-.36,5.13,0,8.08,0s5.84-.43,7.46-2.12c.6.08.85.23.92.41l2.93-1.26c1.13-.48,2.36-1,3.51-1.58,2.32-1.11,4.38-2.41,5.05-3.4,2.36,1.79,7-.93,10.89-3.93s6.94-6.19,8.3-4.35c.68-.55,1.38-1.07,2.05-1.64l2-1.75c1.34-1.14,2.54-2.43,3.78-3.66l.13.52L269,400l.77-.82c.49-.53.92-1,1.3-1.5s.72-.91,1-1.34.5-.85.7-1.25a13.59,13.59,0,0,0,1.36-4.09c1.14-1,.84.1.95.35l2.14-2.49a25.14,25.14,0,0,0,1.58-2.13,19.57,19.57,0,0,0,2.09-3.56,25.56,25.56,0,0,0,1.24-3.65c.3-1.39.58-3,.89-5l1.68-.18a9.12,9.12,0,0,1,1.19-3c.72-1.39,1.56-3.18,2.51-5.19,1.74-4.06,3.39-9.22,3.28-14,.15.12.4.36.47,1.14.07-5.39,1.69-11.56,2.34-17.14.15-1.39.26-2.73.31-4a22.09,22.09,0,0,0-.23-3.48A5.94,5.94,0,0,0,292,324l-.48-1.7-.56-1.67c-.37-1.11-.72-2.22-1.12-3.32.4,4.43-.25,4.16-1,3.28s-1.68-2.36-1.89-.54a15.19,15.19,0,0,1-.09-5.19c.26-1.33.75-1.75,1.26.32l-.16.7c.77.26,1.09-.29,1.18-1.28a10.48,10.48,0,0,0,0-1.75c-.08-.66-.2-1.37-.33-2.1l-.38-2.15c-.13-.69-.27-1.34-.34-1.9-.16-1.13-.12-1.92.36-2a121.56,121.56,0,0,0-4.38-12.54,81.14,81.14,0,0,0-6-11.89,58.82,58.82,0,0,0-8.19-10.66,48.22,48.22,0,0,0-10.79-8.33c.25,1,.48,2,.68,3a48.6,48.6,0,0,0-5.37-2.91c-.64-.52-1-1.12-.68-1.37s1.38-.2,3.39.86a4.23,4.23,0,0,0-1.84-1.27,10.88,10.88,0,0,0-2.53-.48,6.41,6.41,0,0,0-3.25.43c-4-1.5-3.15-1.89-1.42-2.05.43,0,.9-.05,1.36-.06l1.21.05c.67,0,1,0,.3-.23-1.22-.35-2.45-.57-3.68-.8l.76.45a28.07,28.07,0,0,0-3.58.54,24.18,24.18,0,0,1-5.13-.08c-3.29-.61-1.66-1.43-3-1.54,0-.16-.45-.23-2-.05a64.08,64.08,0,0,0-7.74.56c1.1.4,2.18.83,3.25,1.31-3.23,1.2-6.94,1-3.27,2.34-1.34-.56-3.74-.55-6.59-.07a48.61,48.61,0,0,0-9.19,2.7c-3.07,1.23-6,2.69-8.28,3.88-1.14.62-2.15,1.15-3,1.55a8.93,8.93,0,0,1-1.82.8c-3.24,3.41-6.89,5.82-11.27,9.15,1.29-.58,3.09.45-.64,3.2-.63-2.08-2.59-1.05-4.91.69-1.17.85-2.4,1.92-3.66,2.79a10.06,10.06,0,0,1-3.68,1.88c1.9-.64-.39,1.95-2.24,4.56s-3.25,5.2-.58,3.81c-2.59,3-1.35-.71-3.91,1.24-2.11,4.42-5,8.84-7.62,13.8A58.17,58.17,0,0,0,153,326.22c.47.29,1.72-1.42,1.88,1.2-.69.9-1.28,1.83-1.93,2.76s-1.28,1.88-1.86,2.85c-.1,2.4,2.62,2.55.34,6.56.51-.56,1.28-1.36,1.27.19a64,64,0,0,0-1.18,17.28,105.54,105.54,0,0,0,2.62,17.3c2.65,11.41,6.47,22.31,9.59,33.79-.48-3.29.53-1.43,1.64.68-.49-1.49,1.17-.56,1.67-1.16l1.39,4.7,1.57,4.68c1.3.24,2.7,2.4,4.07,4.48s2.75,4,3.84,3.86c-.7-.74-1.33-1.53-2-2.29,2.05,1,2.27-.86,2.37-3.08s.14-4.83,1.49-5.34c-2.24-1.12-2.89-4.08-3.73-7.21s-1.77-6.47-4.86-8.89c-.09-1.65,1.38.81,1.65-.22a6.37,6.37,0,0,1-2.3-2.36,17.39,17.39,0,0,1-1.62-4.46l.45.3a59.06,59.06,0,0,1-3.83-13c-.66-4.06-1.16-8.3-1.59-14.38l-1.3,1.1a12.68,12.68,0,0,1,.45-4.51c-1.19-1.4-1.12.45-.9,2.33s.37,3.82-1,2.62a9.33,9.33,0,0,0,.72-4.6c0-1,0-2-.1-3.14s-.08-2.24-.13-3.36c-.14-4.51.15-8.89,1.87-9.94.3-4-1.72,1.07-1.42-2.94.31-.33.66-.65,1-1l-1-1.12c.45-2.63,1.82-3.76,2.56-3.74a11.2,11.2,0,0,0-.08,2.47,12.42,12.42,0,0,0,.81-2.81c.1-.52.16-1,.23-1.59s.15-1.06.21-1.58a17.87,17.87,0,0,1,.71-4.39c-.48,1.17-1,2.35-1.38,3.56A60.68,60.68,0,0,1,170,315.3c2.37-5.42,5.21-10.5,7.64-15.21l-1,.24a22.56,22.56,0,0,1,1.32-2.28,14.56,14.56,0,0,1,1.17-1.57,13.31,13.31,0,0,1,2-2c.68-.56,1.39-1.11,2.31-1.93s2-1.93,3.57-3.56l-.13.34a15.12,15.12,0,0,1,4.42-5.06c-.64,1,.43.64,1.43.34s1.95-.5,1.06.73c1.51-1.6,2.48-2.59,3.11-3.27a6.69,6.69,0,0,0,1.08-1.45,14.76,14.76,0,0,1,2.16-4c.59.08,1.16.14,1.75.24,1.22-1.87,1.07-2.5,5-4.85-1.46,1.27-.61,1.32.2,1.43s1.55.3,0,1.77a32.69,32.69,0,0,0,10-4.24c2.46-1.34,4.53-2.32,7-1.05,1.66-2-.32-2-2.54-1.51s-4.5,1.47-3.46.77c-1.12-.16-.47-1,.87-1.86a17.17,17.17,0,0,1,2.39-1.18,13.78,13.78,0,0,1,2.51-.66c1.51-.27,3,.41,4.91,1.12a21.57,21.57,0,0,0,7.78,1.35c-.7,0-.75.22-1.44.21a5.2,5.2,0,0,0,1.95.18c.64,0,1.3-.09,2-.16a6.5,6.5,0,0,1,4.22.84,3.29,3.29,0,0,1,2.9-.32c.84.21,1.54.33,2.16-.73a40.49,40.49,0,0,0-6.48-.94c1.86,0,3.82-.52,6.07-.45a13.43,13.43,0,0,1,1.75.14,15.07,15.07,0,0,1,1.82.45,10.09,10.09,0,0,1,1.87.87,10.54,10.54,0,0,1,1.89,1.31,15.44,15.44,0,0,1-3.89-.29,4.93,4.93,0,0,0,2.31,1.24,4.53,4.53,0,0,1,2.25,1.45,1.73,1.73,0,0,1-1.86.19l-.61-.24-.69-.24c-.48-.18-1-.4-1.51-.64-2.11-.91-4.74-1.8-6.78-1.27a3.37,3.37,0,0,0,1.72.62c.69.15,1.47.2,2.13.3,1.29.25,2.08.51.75,1.38a3,3,0,0,1,2.54-.36,6.61,6.61,0,0,1,2.35,1.24c1.57,1.13,3.1,2.52,5.72,3.06l-1.14.9c.35.15.92.34,1.54.62a10.14,10.14,0,0,1,.93.47,4.48,4.48,0,0,1,.81.69,22.31,22.31,0,0,0-3.05-.28,5.3,5.3,0,0,1,1.3.58,6.9,6.9,0,0,1,1,.92,9.75,9.75,0,0,1,1.54,2.25c.42.82.82,1.64,1.29,2.39a7,7,0,0,0,1.66,2.11c-2.26-3-2.31-3.51-1.78-3.82s1.5-.2.81-1.79a10.51,10.51,0,0,1,3.42,3.89,6.06,6.06,0,0,1,.44,2.94,12.58,12.58,0,0,0,.21,3.22,10.54,10.54,0,0,0,.77,2.22,21.29,21.29,0,0,0,1.52,3,7.7,7.7,0,0,1-1-2.87c-.14-.94,0-1.52.86-.68.34,1,.69,2.17,1,3.27a9.67,9.67,0,0,1,.23,2.89,11.93,11.93,0,0,0,1.44,2.56c.26.21.35-.12.41-.57.13-.91.11-2.36,1.08-1.06a2.81,2.81,0,0,0,.91,3.05,12.32,12.32,0,0,1,2.59,3.1l-1.38.45c.71,4.2,1.57,4.55,2.38,4.84s1.62.47,1.84,4.43c-.82-1-1.76-1.89-2.64-2.8.47,1.26.93,2.53,1.31,3.83l-1.76-.51a15.11,15.11,0,0,1,1.64,4.78,27.94,27.94,0,0,1,.14,5c.46-.54,1.13-.46,1.72.24a4.89,4.89,0,0,1,.82,1.51A10.33,10.33,0,0,1,283,330c-.37,1.34-.73,1-.94,1s-.22.33-.14,3a7.25,7.25,0,0,1-1.2-2,3.54,3.54,0,0,1,.36-2.87c-.48-.22-.95-1.14-1.43-1.35a13.17,13.17,0,0,0-.29,4.73c.06,1.61.26,3.12.26,4.08a8,8,0,0,1,.34-2.07l.51,1.94.41,1.95c.27,1.31.58,2.63.77,4-.65,1.18-1,.16-1.34-.82,0,1.57.64,2.72.44,5-1.09-.74-2.26-.75-2.54-4,.26,2.44.34,4.89.41,7.36-.6.41-2.05,3.4-2.31,2.39a13.63,13.63,0,0,0-.64,3.2c0,.59-.08,1.21-.1,1.85s-.09,1.27-.14,1.93a22.82,22.82,0,0,1-.52,4,11.61,11.61,0,0,1-1.43,3.74,4.08,4.08,0,0,1-.16,2,26.56,26.56,0,0,1-1.81,3.17l-1,1.52c-.35.49-.69,1-1,1.49-.66,1-1.26,2.09-1.9,3.21a37,37,0,0,0-1.65,3.8c-1.22.47-2.37,1-3.59,1.35-1.2,1.84,0,1.44,1,1.31s1.85,0-.27,3.26c-3.16,4.47-2.69.27-4.36,1.24-.25.66-.6,1.41-1,2.26a13.84,13.84,0,0,1-1.56,2.61,10.72,10.72,0,0,1-5.68,4.05A37.21,37.21,0,0,1,253.92,395.54Zm-53.87,17.17c1.16-.27,3.41-1.28,4.26-.42C203.05,414,202,413.21,200.05,412.71Zm-84.6-29.21c1,.25,1.84,1.29,2.66,2.71A9.3,9.3,0,0,1,115.45,383.5Zm80.12-114.39-.12-.09C194.69,266.11,194.94,267.15,195.57,269.11Zm1.68,5.88c.39.5.57.4.67.09-.48-.28-.94-1.56-1.46-3C196.26,272.6,196.37,273.4,197.25,275Zm38.39-18.69,1.21.38C234.13,257.1,234.88,256.73,235.64,256.3Z"/><path class="cls-1" d="M124.77,388.65a1.38,1.38,0,0,1-.08.94C125.2,389.68,125.37,389.46,124.77,388.65Z"/><path class="cls-1" d="M273.38,367.21s.05-.11.08-.16a.54.54,0,0,0-.18-.25Z"/><path class="cls-1" d="M124,246.74a6,6,0,0,1-2.19-.14C121.86,247,122.42,247.08,124,246.74Z"/><path class="cls-1" d="M205.37,306.15c-.1-1.31-.35-2.61-.52-3.91a8.66,8.66,0,0,1-.33,3.54C204.86,305.69,205.35,304.92,205.37,306.15Z"/><path class="cls-1" d="M191.3,336.81c0,.55-.38,1-.41,1.59l.68.12C192.35,336.39,192.41,334.75,191.3,336.81Z"/><path class="cls-1" d="M200.56,309.7c-1.22.27-.91,2.6-.85,5.23,0-.16,0-.31,0-.46C201.41,315.38,201,312.5,200.56,309.7Z"/><path class="cls-1" d="M199.69,315.53a16,16,0,0,1-.21,2.41C200.13,318.33,199.72,317,199.69,315.53Z"/><path class="cls-1" d="M200.36,282.07c0,1.33,1.71.39,1.4,1.23.92.52,0-1.5-1-2.74S199,278.79,200.36,282.07Z"/><path class="cls-1" d="M196.46,311.64l1.55-.85c-.38-.49-.76-1-1.17-1.45C196.76,310.11,196.58,310.88,196.46,311.64Z"/><path class="cls-1" d="M196.28,291.66c.12,1.36.13,2.73.2,4.08.24-.09.47.4.66,1C196.84,294.26,196.74,291.48,196.28,291.66Z"/><path class="cls-1" d="M197.14,296.75a10.92,10.92,0,0,0,.56,3.25A27.13,27.13,0,0,0,197.14,296.75Z"/><path class="cls-1" d="M196.1,306.15c.11-.39.21-.79.29-1.19l0-2.84C196.28,303.47,196.25,304.82,196.1,306.15Z"/><path class="cls-1" d="M177.92,252.39c-1.1-1-2.34-1.89-3.52-2.8-.67.08,0,1.13,1.34,2.09C176.78,252.13,178,253.25,177.92,252.39Z"/><path class="cls-1" d="M182.62,265.3a4,4,0,0,1,0-2.19L181,264Z"/><path class="cls-1" d="M174.94,255.87c-.64,0-5.22-3.09-1.5.39C174.07,256.19,177.22,258.91,174.94,255.87Z"/><polygon class="cls-1" points="116.26 243.89 117.29 243.48 116.11 240.66 116.26 243.89"/><path class="cls-1" d="M81.52,284.08c1.16-1.89.9-2.27.56-2.67s-.67-.73.66-2.33c0-.63-.67,0-1.16.68s-1,1.39-1,.75C80,283.33,79.26,284.54,81.52,284.08Z"/><path class="cls-1" d="M80.53,280.51a14.93,14.93,0,0,0,.18-1.51A5.81,5.81,0,0,0,80.53,280.51Z"/><polygon class="cls-1" points="172.13 423.39 173.58 426.66 173.15 424.2 172.13 423.39"/><path class="cls-1" d="M177.82,427.59l-1.09,1.81,2.65.63C178.85,429.45,177.82,428.33,177.82,427.59Z"/><path class="cls-1" d="M191.53,408.41l-.27.45c.44.53,1.16.65,2.62.81C193.09,409.28,192.31,408.83,191.53,408.41Z"/><polygon class="cls-1" points="232.54 405.36 231.87 405.55 233.69 406.79 232.54 405.36"/><path class="cls-1" d="M258.62,385.87c-.94.89-1.66,2.33-2.7,3.16a8.78,8.78,0,0,1,2.71-2C259.32,386.7,259.56,386.47,258.62,385.87Z"/><path class="cls-1" d="M318.35,486.09c.15.25.81-.82,1-1C318.81,485.07,318.16,486.36,318.35,486.09Z"/><polygon class="cls-1" points="313.1 485.65 313.48 485.3 312.17 485.86 313.1 485.65"/><path class="cls-1" d="M309.88,482.94c-1.1,1.89,1.39.72,1.47,1.79l-.22.45,1.36-1.11C311.63,483.7,310,483.82,309.88,482.94Z"/><path class="cls-1" d="M311.33,478c-.47.7-.83.22.19.52a1.56,1.56,0,0,1,.08-.21A.87.87,0,0,1,311.33,478Z"/><path class="cls-1" d="M311.6,478.34c.35.23.26-.71,0,0Z"/><path class="cls-1" d="M309.84,477.37l.91-.17c.25-.44,0-.85.35-1C310.41,476.12,310.16,476.55,309.84,477.37Z"/><path class="cls-1" d="M308.38,478.14l.43,0C308.91,477.92,308.91,477.82,308.38,478.14Z"/><path class="cls-1" d="M309.72,478.05l-.91.06c-.18.31-.65.82.37,0C308.71,478.56,309.22,478.2,309.72,478.05Z"/><path class="cls-1" d="M309.75,478.53c-.09.55,0,1.05-.9,1.21C309.85,480.26,310.73,479,309.75,478.53Z"/><path class="cls-1" d="M308.27,484.47l-.08.77.76-.3C308.57,485.09,308.69,483.94,308.27,484.47Z"/><path class="cls-1" d="M308.14,474.17c-.35.3-.73,1-1.12,1.43l.67-.08A2,2,0,0,1,308.14,474.17Z"/><path class="cls-1" d="M307,475.6l-1,.11C306.35,476.17,306.69,476,307,475.6Z"/><polygon class="cls-1" points="306.67 479.79 308.56 479.31 306.5 479.67 306.67 479.79"/><polygon class="cls-1" points="306.56 472.46 307.57 471.99 305.99 472.64 306.56 472.46"/><path class="cls-1" d="M305.39,471.46c.81-.4.86-1.25,1.44-1.42a3.47,3.47,0,0,0-1.9.26C305.43,470.31,305.6,470.63,305.39,471.46Z"/><path class="cls-1" d="M303.83,470.54a5.69,5.69,0,0,0,1.1-.24A3,3,0,0,0,303.83,470.54Z"/><path class="cls-1" d="M305.45,474.78a2.46,2.46,0,0,0,.61-1.24l-.76,1Z"/><path class="cls-1" d="M305.27,474.63l0,0c-.17-.21-.27-.36-.32-.43Z"/><path class="cls-1" d="M305.49,474.83l0-.05C305.38,474.89,305.36,474.93,305.49,474.83Z"/><path class="cls-1" d="M306.27,477.8c-.76.25-1.87.23-2.09,1.55C305,478.92,305.12,478.17,306.27,477.8Z"/><path class="cls-1" d="M304.55,476.17l.26.69c.23-.25.5-.68.88-.8Z"/><polygon class="cls-1" points="304.03 476.21 304.55 476.17 304.46 475.91 304.03 476.21"/><path class="cls-1" d="M303.68,472.18a1.16,1.16,0,0,1-1.15-.25A2,2,0,0,0,303,473C303.34,472.81,304,472.44,303.68,472.18Z"/><path class="cls-1" d="M304.36,473.45h-.1C304.21,473.55,304.21,473.6,304.36,473.45Z"/><path class="cls-1" d="M300.29,469.27l-.15.19.18-.13Z"/><path class="cls-1" d="M302.87,473.25c0,.37.36.29.76.14A1.51,1.51,0,0,1,303,473C302.85,473.14,302.76,473.22,302.87,473.25Z"/><path class="cls-1" d="M302.76,470.22a4.35,4.35,0,0,0-.22.82C302.75,470.67,303,470,302.76,470.22Z"/><path class="cls-1" d="M304.46,473.14h.07C304.67,472.88,304.58,473,304.46,473.14Z"/><path class="cls-1" d="M304.46,473.14a4,4,0,0,0-.83.25,1.45,1.45,0,0,0,.63.06A2.29,2.29,0,0,1,304.46,473.14Z"/><path class="cls-1" d="M293.19,473.58c1-.69,2.31-.76,1.77.58,1.13,0,3.84-2.89,5.18-4.7a2.1,2.1,0,0,1-1.75.54c-.37.6-.22,2.12-1.42,2.36-1.06-.31-.15-.84.07-1.58-.92,1.23-2.4.44-4,1.93l1.11.17C293.9,473.1,293.29,473.21,293.19,473.58Z"/><path class="cls-1" d="M300.85,470.5l.28.11a3.83,3.83,0,0,1,.65-1.74,2.59,2.59,0,0,0-1.46.46l.72,1.13Z"/><path class="cls-1" d="M301.93,471.53c-1.12.69-2,.54-2.77,1.76.61.56,1.2-.27,1.93-.28-1.09-.77.79-.19.73-1.38a1.51,1.51,0,0,1,.71.3,3.81,3.81,0,0,1,0-.89l0,.08h0c-.08.15-.15.23-.12.12h0a4.11,4.11,0,0,1-.41.27c0-.45.22-.26.41-.27l.15-.12h0c-.45-.17-.92-.33-1.37-.51C301.16,470.94,301.42,471.17,301.93,471.53Z"/><path class="cls-1" d="M301.7,480.81a.94.94,0,0,1,.18-.24C301.7,480.62,301.6,480.67,301.7,480.81Z"/><path class="cls-1" d="M301.86,479.86c.2-.05.62-.35.75,0-.08.47-.44.44-.73.75.38-.11,1.14-.18,1.15-1.05l-.19.06a4.51,4.51,0,0,1,.81-2.38A15.67,15.67,0,0,0,301.86,479.86Z"/><path class="cls-1" d="M301.53,475.86l-1.22-.39-.44,1.17.48-.48C300.58,476.81,301.1,476.15,301.53,475.86Z"/><polygon class="cls-1" points="300.71 468.77 301.86 468.02 299.98 468.76 300.71 468.77"/><polygon class="cls-1" points="299.73 467.8 300.69 467.11 299.91 467.27 299.73 467.8"/><path class="cls-1" d="M266.3,392.54l-.3-.39A1.15,1.15,0,0,0,266.3,392.54Z"/><path class="cls-1" d="M266,395.07l.57.12C266.25,395,266,395,266,395.07Z"/><path class="cls-1" d="M284.23,438.12c.91-.75,2.45-1.7,1.18-1.28l-1.21.49C284.49,437.58,284.44,437.84,284.23,438.12Z"/><path class="cls-1" d="M272.51,415.66l-.39.17,1.27.25Z"/><path class="cls-1" d="M267.12,415.63l.81-.72A2.8,2.8,0,0,0,267.12,415.63Z"/><path class="cls-1" d="M267,378.55l-1.23-.66C265.63,378.53,266.35,378.38,267,378.55Z"/><path class="cls-1" d="M291.57,456.35a1.84,1.84,0,0,0,.21-1.22C291.35,455.89,290.56,456.77,291.57,456.35Z"/><path class="cls-1" d="M280,394.89a1.17,1.17,0,0,0-.77-.35A1,1,0,0,0,280,394.89Z"/><path class="cls-1" d="M291.22,454.16a3.37,3.37,0,0,0-.17.32,1.09,1.09,0,0,1,.73.65C292.1,454.56,292.21,454.07,291.22,454.16Z"/><path class="cls-1" d="M283.25,331.24c.06,0,.11,0,.18,0C283.28,331.12,283.25,331.17,283.25,331.24Z"/><path class="cls-1" d="M301.23,324.38a1.4,1.4,0,0,1-.17.54C301.19,324.87,301.26,324.72,301.23,324.38Z"/><path class="cls-1" d="M296.91,463.05c.24.19.15-.05,0,0Z"/><path class="cls-1" d="M293.54,467.19a1.54,1.54,0,0,0-.59.27A2.25,2.25,0,0,1,293.54,467.19Z"/><path class="cls-1" d="M282.67,455.11v0C282.47,455.28,282.51,455.24,282.67,455.11Z"/><path class="cls-1" d="M296.67,463.74a1.47,1.47,0,0,0,.11-.52A1.51,1.51,0,0,0,296.67,463.74Z"/><path class="cls-1" d="M297.15,463.34a1,1,0,0,0,0,.28C297.39,463.53,297.48,463.43,297.15,463.34Z"/><path class="cls-1" d="M296.63,462.75a.7.7,0,0,1,.15.47c0-.1.09-.16.13-.17A3.13,3.13,0,0,1,296.63,462.75Z"/><path class="cls-1" d="M277.06,357.25l.14,0C276.78,356.75,276.82,356.91,277.06,357.25Z"/><path class="cls-1" d="M269.15,433.54s.05,0,.07,0l0-.06Z"/><path class="cls-1" d="M268,432.56c1.69.18,1.55.5,1.29.95l3.6-1.15Z"/><path class="cls-1" d="M266.68,386.43l-1.26.67c-1.78-1.27-1-1.92-2.75-1.36,4,.69,0,3.33,4,4l-.92.44c.06-.15-.17-.21-.11-.36-2.07.84,2.8,1.13,2.09,2.42a1,1,0,0,1-1.43.34l.91,1.16c-.11.3-.81.16-.7-.14l.17,1.65-.12,0a14.53,14.53,0,0,1,1.95,1.17c-.62.36-.41-.24-.93-.17l.91,1c-1.09.28-2-.53-1.83-1.14-4.12.52.91.81-1.55,2.46l-.47-.89c-2.33.39-1.53,1.13-3,2,.77-.2,3.73-1.73,4.69-.68-.32.25-.48.61.31,1.19-1.45-.08-1.12.46-1.07,1.11l-1.92-.14c.52.74,1.5.72,2.34,1.17-.23.77-1.72.88-3,1-.36,1.25,2.41-.79,2.72.7-.74,1,0,1.79,1.17,3-.67.72-1.17-.13-1.72.12l1.52.66c0,.15-.5.1-.74.08.59.54,1.92,0,2.43.88,1.06.11.28.54-.46,1.08s-1.4,1.21-.18,1.7c-.53.28-1.18-.09-1.92,0a10,10,0,0,0,3.35,2.3l-1.22,1.06c1.42-.81,3.15,0,4.58.75.69-.29,1.29-.54,1.57-.7.36.4.71.8,1.1,1.19a3.35,3.35,0,0,1-1.79-.07,4.5,4.5,0,0,0,.48.2c-.67.5-1.79.34-2.89.08.36-.18.75-.36,1.14-.53a12,12,0,0,0-3.59-.34,1,1,0,0,1,.53.4,1.86,1.86,0,0,0-.79-.05c-.2.05.22.17.73.35l-2.11.43.86,0-1.19,1.83c2.26,1.08,5.49,1.83,6.56,3.6-1.63-.29-2.56.19-4.41.38,1.89-.75-1-1.42-.66-2.48-.16.55-1.06.52-1.38.41l1.94,1.63c-1.51.13-1.1.51-1.65,1.06,2.94-.7,2.18,1.11,3.19,1.71-1,.18-2,.15-1.92-.78-2.11,1.29,3.67.8,1.9,2-.05-.21.08-.35-.43-.36.95.38.42,1.71-.49,1.56l0-.22c-.2,1.52.78,4.41,3.3,4.12-.32.08-3,.4-3.58.41q4.47.48,8.9.76c-2.18.24-7.11,2.22-8.56,1.29-.23.41-.5.92.4,1.48.25-.31,3-1.27,3.23-1-2.19,1.4-1.13.87-2.89,2.42.37-.45,3.81-.87,3.84-.32-.52,0-3.28.86-3.68.75,1.21.19,2.42.36,3.62.52-.67-.18-2.78.66-3.62,1.21.6-.31.25,1.21.66,1.49l.61-.79c-.08,1.68,4.92.23,5.23,1.7-.72,0-4.25.8-4.41,1.69,1.78-.14,8.43-1,10.07-.21l-.86.55,1.37.56a55.71,55.71,0,0,1-10.73,0c-.56.81-1.06.52-.69,1.35a1.12,1.12,0,0,1-1.63-.28l.1,2.23c1.88-.74,2.42.89,4,.24l-2.69-1.49c1.89-.7,5.82-.58,5.94.86-.61.62-3.48,1-4.09,1.22.71-.05,1.76.85,1.34,1.15l-1.24-.21c-.4,1.06,3,.3,1.57,1.92,0,.36-2,1.93-.9,1.54A46.23,46.23,0,0,1,284,447.66a19.82,19.82,0,0,1-2.33,3.17c-1.46,1.22-4.26.94-5.51,2a3.66,3.66,0,0,1,1.5-.14c-.29.51-1.63.54-1.09,1.15,1.92-.7.51,1.49,1.74-.37.85.44,0,.89.42,1.65a8.49,8.49,0,0,1,5.24-.81,4.73,4.73,0,0,0-1.27.83c.49,1.4-.06,2.59.64,3.8-.37.35-.57,1.23-1.48,1.39.42,0,1.12-.16,1.37.2-1.13,1.59-.72-.72-2.26.86,1.07-.52,2,.21,2.95.38,1.5-1.07-.4-1.41-1.36-1.6a9.28,9.28,0,0,1,6.77-.95c1.08.64-1.18,1.25-.78,1.23.66,2.08,4.66-.77,4,1.63-1,1.44-2.69,1.76-3.58,2.52-1-.46.11-1.76-.28-2.24l-.24,1.05c-.61,0-1.29-.28-1.05-.82-1,1.28,1.66,3.23,1.51,5.35.62-.06,1.37,0,1.77-.53l-.49-.3c.81-1.12,2-.22,2.17-1.1,1.13.06,2.75-.18,2.7,1l-1.38,1.23c.42-.33.52-1.15-.09-1,.88-.16-1.15,2.68,1.06,1.59l.62-1.29c1.16,0,3.2-.53,3.24.46,1.21-1.4-.29,0,1-1.77-1.8,2-1.15-1.72-2.9.58,1.63-1.94.23-1.46,1.5-3.31-.49.37-.79.9-.94.17a3.83,3.83,0,0,1-.53.19s0,0,0-.07l0,.08c-.09,0-.11,0,0,0a2.42,2.42,0,0,1-.55.82c-1.34.53-1.92-.42-2.74-.33,0-.5.68-.24,1.08-.79l-1.2.13c1.08-.8,1.27-2.14,2.45-1.78l-.42-.75c.35-.83.25-1.56-.46-1.62,0-.49-1.8-.08-.72-.33-.47-.23-.92-.49-1.38-.74l.28-.18c-.49-1.22-3.3-1.31-1.91-3.79-.53-.22-1.11-.44-1.08-1.3l1-.66c-.61-.33.32-2-.88-1.73,1.29-1,1.15-1.63.7-2.22-.22-.29-.53-.57-.77-.84a1.17,1.17,0,0,1-.35-.84l-1.41.56c-.18-.67-.82-1.12-1.71-1.7l-1.23.55c-1.3-.31.15-2.14-.37-3.21.51-.09.46.24.26.54,1.18-1.18.46-1.69-.4-2.18s-1.79-.94-.94-1.89c-.56-.15-.48-.43-.22-.74t.09.06a.31.31,0,0,0,0-.13c.18-.21.39-.42.55-.63a2.72,2.72,0,0,0-.57.56,2.09,2.09,0,0,0-.81-.79l1.35-.56s0,0-.06-.07c.42-.49-.74-.09-1.73.4a3,3,0,0,0-1-.24c2.17-.92-1-.75,1.29-1.79-1.23.07-1.35-1.57-3.88-1.17.32-.09.45-.23.52,0,.18-.48.35-.95-.44-1.16l1.74-.58-2.59-.36a3.19,3.19,0,0,1,3.06-.91c-2.38-.85-1-.88-3.34-1.58l1.18-.17c-.13-.39-1.82-.75-.9-1.17,2-1.26-.38-4.54,1.36-7.1-3.43.84,1.44-1.24-1.25-1,.81-.23,1.25-.59,2-.29-.91-1.1,1.16-1.87-1.19-2.49.82-.2,1.23.16,1.71,0-.19-.08-.75-.31-.27-.47s.71.11,1.08.26c-.24-1.16-2.79-1.1-5.19-1,1.07-.7.9-1-.68-1.35.77-.27,1.58-.67,1.89.07.09-.44,1-2.65-.87-2.62.48-.16.12-.61-.11-.72a4.51,4.51,0,0,0,0-2l-.3.27c-2.33-.34-.52-.79-.79-1.56l.24,0c1.68-1.76-.8-.78,1.12-2.49l-1.44.07c-3.08-.23,1.82-1.52.69-2.54l-.84.33c-1-.6,4.29-1.38,4.7-1.89.27-.1.42.21.61.38,1.9-1.32-1.87-.27-2.25-1.35,1-.14,2.56.38,2.79-.31.85-.28-3.21-2.27-1.15-3.1-.8.15-1.6.31-2.14-.24-.21-.79,3.14-1.78.74-2.69a1.54,1.54,0,0,1,.62-.08c-.58-.64-.88-2-2.15-2.5,2.51,0,2-.94,1.48-1.86s-1.13-1.79,1.14-1.47c0-.6,0-1.2,0-1.81l.45.12c.49-1.08-.53-1.65-1.55-2.23.36-.22.74,0,1,.11,1.19-1.51,1-1.69-1-3.5l1.49.12c-.77-.55,2.77-1.93,1.39-3.89a1.67,1.67,0,0,1,.62.32c-.69-1.09.58-2,1.36-2.76s1.06-1.56-1.49-2.53l-1-1.51c-.77,1.46-2.23-.8-3.25-.37-.17-.7,2-1.2,2.06-.38l-.29.05c2.66,1,1.48-1.69,3.33-1.16.64-3.09,3-5.59,4-8.33l-2.2-.33.44-.94c.57-.1,1.74.17,1.44.84,1.3,0-.63-1.48-1.07-1.65,1.28-1.09,2.26,1.31,2.45.91l0-.61-.28.05c-.71-.74-1.6-1.07-1.23-1.88.58-.39,1.37.16,1.52,0,.14.05.24,0,.17-.3l.59-1.15-1.81-.07c-.62-.82.49-1.13-1.57-1.19,1.58.07,2.23-1,2.62-2.08s.56-2.23,1.09-2.32a2.15,2.15,0,0,1-.11-2.81c-.43.1-2.3-.45-1.77-1.17,3.64,1.74,2.2-.83,5.14-.4-2-.14.45-2.41-2.43-2.54.57-.53,1.41.53,2.49.39-.8-2.15,2.35-3,2.7-5.12-.47-.24-1.35-.24-1.89-1l2.85.06c-.07-.47-2.62-1.59-.64-1.52-.45-.08-1.13-.21-1.17-.53,2-1.33,2.42-3.42,3.11-5.41s1.69-3.86,4.78-4.52c-1.16,0-1.07-.37-.91-.76-.34.13-1.15-.62-1.8-.91l2.56-.56c-1.59-1.24.76-1.66-.8-2.75l0,.65c-1.58-1.75-4.84-1.55-7.31-3,1.83,2-4.4.2-1.84,3.17-.67,0-.7-.67-1.37-.83.92.89,1,1.38.1,1.84l-.22-.22c-.76,2.13-2.27,2.44-4.1,4.37l1.36.45c-.4.41-.85.32-1.28.39,1.68,1.49.76-1.32,2.66.22-2.92-.6-1.66,3.41-4.84,2.48-.36.75,1.6.46,1.24,1.21l-.9-.17.95.67c-.39.41-1.52.21-2.22-.08.14-.08,0-.43,0-.59-1.26.22-.49,2-.9,2.07l.82-.51c-.16,2.41-2.31,4.53-1.47,7.25l.68.1c.53,2-1.17,1-1.31,2.88l-.13-.12c.49.59.63,1.16.37,1.6-.56-.71-1.74.27-2.33-.61.61,2.18.66,1.22,2.58,3.21l-1.14-.13c.81.73,1.29.94,1.25,1.89-.64-1-1.79,0-2.69-1.25-3,1,1.37,3.51-2.29,3.17,2.62,1.84,2.16-1,2.62-.33,1.08,0,1.94,1.45,1.45,1.91-.26.54-4.06-.3-4.51,1.19.06-.14-.16-.22-.1-.36-.93.3.67,1.41-.77,1.69,1.66,1-.38.86,1.85,1.69l-.09-1.52c.34,1,2.76,2.51,1.08,3.35a4.41,4.41,0,0,1-1.16-1.16c-.79.16.22.84-.59,1-2.24-.81,0-1.79-1.44-3.17-1.08.1,1.15,2.09-1.18.9,2.94,1.57-.87,1.34,1.22,3.08l-1.34-.48c.17.23.72.75.6,1l-1.62-1.07c1.27,1.28-1.78,1.2-1.19,2.24.44-1.67,1.75.11,3-.3,1.25,2.55-3.92.13-3.92,2.63-.12-.37,1.16-.94,1.65-.28a3.55,3.55,0,0,1-1.88.87c-.11,1.61,1.48.14,2.15,1-1.81.07.49.94.85,1.74l-1.4-.37c-1.35,1.51,2.8,1.22,1.31,2.49l-1.78-1.15.29.94-1.55-.57c.94,1.18.6,1.39-.06,2.16,1,0,2.52.72,2.39,1.5-1,.33-1.27-.61-1.32.53-.83-.45-1.87-1-.46-1.16-.45-.15-.83-.45-1.27-.61-1.1.35-.56,1.39-.64,1.79a.7.7,0,0,1,.43-.35l1.59,2a1.51,1.51,0,0,1-1.34-.45c.08.36.67.72.7,1.23-1.13-.38-2.33-.6-2.71-1.4.3.6.63,1.21.95,1.81-.52,0-1.54.51-1.92.22-.85.73,1.82,2.56.69,3.51a1,1,0,0,1,.53.53c-.47,1-2,1.73-.66,3.28l-2.21.38c.31,1.07,2.79-.55,3.3,1.23.47,1.27-1.85.16-2.5.48.94.75,3,2.07,1.12,2.91C266.45,387,266.79,386.79,266.68,386.43Zm-.35,12.48c-.29-.26-1.2-.81-.34-.93C267.63,398.37,266.83,398.53,266.33,398.91Zm3.55,18.71c-.49-.14-.28-.43.24-.77C270.26,417.06,270.23,417.31,269.88,417.62Zm24.28,43.43-.07,0C294.32,460.36,294.22,460.63,294.16,461.05Zm0,1.17a.8.8,0,0,0,.53-.29c-.34.15-.48,0-.54-.29C293.89,461.9,293.75,462.15,294.18,462.22Zm-6.83-105.17-.43.07C286.67,356.56,287,356.8,287.35,357.05Z"/><path class="cls-1" d="M267.75,415.64a3.85,3.85,0,0,1,.78-.15A.77.77,0,0,0,267.75,415.64Z"/><path class="cls-1" d="M267.2,378.67s0,0,0,0l-.24-.08Z"/><path class="cls-1" d="M275.61,453.51a1.69,1.69,0,0,1,.52-.71C275.8,452.93,275.56,453.15,275.61,453.51Z"/><path class="cls-1" d="M299.18,465.08l-.67-.27c.23.2,0,.47-.05.73C298.72,465.33,299.05,464.94,299.18,465.08Z"/><path class="cls-1" d="M295.69,475.09c.19,0,.15.15.35.11l.49-.46C296.23,474.45,295.62,474.57,295.69,475.09Z"/><path class="cls-1" d="M295.69,468.44c-.94.77-.36.86.09,1.09a.13.13,0,0,1,0-.07C297.17,468.53,296.43,468.49,295.69,468.44Z"/><path class="cls-1" d="M295.88,469.59a.57.57,0,0,1,.29.32C296.74,469.53,296.18,469.68,295.88,469.59Z"/><path class="cls-1" d="M295.55,462.82c-.14.35,1.36-.76,1-.39C298,461.76,294.23,462.33,295.55,462.82Z"/><polygon class="cls-1" points="292.72 471.17 293.81 470.12 292.69 470.64 292.72 471.17"/><path class="cls-1" d="M291.39,467.48l.1.86a.62.62,0,0,1,.54-.14C291.79,467.8,291.74,467.21,291.39,467.48Z"/><path class="cls-1" d="M292,468.2a.51.51,0,0,0,.55.35A1.14,1.14,0,0,0,292,468.2Z"/><polygon class="cls-1" points="291.73 470.6 291.84 470.23 291.61 469.73 291.73 470.6"/><path class="cls-1" d="M287.31,460.46l-.78-.51c-.49.18-.65.54-.32.7C286.62,460.65,286.94,460.82,287.31,460.46Z"/><path class="cls-1" d="M285,464.77c.14-.36.42-.54.78-.91l-1.61.94Z"/><path class="cls-1" d="M283.42,462.82c-.49.19-1.91-.36-1.26.54C282.64,463.19,283.44,463.72,283.42,462.82Z"/><polygon class="cls-1" points="279.82 450.28 279.92 450.47 282.73 449.26 279.82 450.28"/><path class="cls-1" d="M269.06,441.77c-.4,1.24,1.88-.28,1.3.89.76,0,.47-1,1.15-.89C270.57,441.38,270.93,440.93,269.06,441.77Z"/><path class="cls-1" d="M271.51,441.77a3.16,3.16,0,0,0,.54.17A1.45,1.45,0,0,0,271.51,441.77Z"/><polygon class="cls-1" points="303.74 323.22 304.59 323.02 303.5 322.85 303.74 323.22"/><path class="cls-1" d="M302.34,321.11l1.75.85-1.35-1.19C302.75,320.93,302.77,321.24,302.34,321.11Z"/><path class="cls-1" d="M262.32,400.56l.46.07c.51-.08.56-.24.66-.55Z"/><polygon class="cls-1" points="264.49 391.49 264.43 391.64 266.21 391.55 264.49 391.49"/><path class="cls-1" d="M263.3,383.56c-.12.3.2.72.08,1C263.18,383.86,265.48,383.81,263.3,383.56Z"/></g></g></svg>