<svg xmlns="http://www.w3.org/2000/svg" viewBox="0 0 99.94 100"><defs><style>.cls-1{fill:#006cfa;}</style></defs><title>habitup-color</title><g id="Layer_2" data-name="Layer 2"><g id="Layer_1-2" data-name="Layer 1"><path class="cls-1" d="M64.35,2.14A49.74,49.74,0,0,0,48.87,0a4.13,4.13,0,0,0,.19,8.26A41.46,41.46,0,0,1,62,10,42,42,0,0,1,91.69,50,41.53,41.53,0,0,1,89.9,62,42,42,0,0,1,50,91.75,41.82,41.82,0,0,1,8.25,52.09,4.13,4.13,0,1,0,0,52.5,50,50,0,1,0,64.35,2.14Z"/><path class="cls-1" d="M49.94,22a4.13,4.13,0,0,0-4.13,4.13V57.83h28.9a4.13,4.13,0,0,0,0-8.26H54.07V26.12A4.13,4.13,0,0,0,49.94,22Z"/></g></g></svg>