<svg xmlns="http://www.w3.org/2000/svg" viewBox="0 0 94.53 100"><defs><style>.cls-1{fill:#10af42;}</style></defs><title>miles-color</title><g id="Layer_2" data-name="Layer 2"><g id="Layer_1-2" data-name="Layer 1"><path class="cls-1" d="M27.18,71c-4.26.79-11.38,2-14.23,5a7.45,7.45,0,0,0,0,10.1,6.53,6.53,0,0,0,9.57,0C25.32,83,26.43,75.49,27.18,71Zm40.08,0C68,75.46,69.12,83,72,86a6.55,6.55,0,0,0,9.57.05,7.46,7.46,0,0,0,0-10.1C78.64,72.93,71.52,71.76,67.26,71Zm0-42.29c4.26-.79,11.37-2,14.23-5a7.46,7.46,0,0,0,.05-10.1,6.53,6.53,0,0,0-9.57.05C69.11,16.67,68,24.18,67.26,28.68Zm-40.09,0c-.75-4.49-1.85-12-4.71-15a6.55,6.55,0,0,0-9.57,0,7.45,7.45,0,0,0,0,10.1C15.8,26.74,22.91,27.91,27.17,28.7ZM39.71,41.92c.25,4,.24,11.87,0,15.83a142,142,0,0,1,15,0c-.25-4-.25-11.87,0-15.83A142,142,0,0,1,39.71,41.92Zm-11-.93c-8.62-1.17-18.36-3.53-23.41-8.88A19.7,19.7,0,0,1,5.13,5.45a17.22,17.22,0,0,1,25.21.13c6.42,6.79,8,21.63,8.37,24.71a114.52,114.52,0,0,0,17.08.05c1.11-9.12,3.34-19.43,8.4-24.78a17.19,17.19,0,0,1,25.2-.13,19.7,19.7,0,0,1-.12,26.66C82.85,38.88,68.82,40.5,65.91,41a134.33,134.33,0,0,0,0,18.06c8.61,1.17,18.35,3.53,23.4,8.88a19.7,19.7,0,0,1,.13,26.66,17.22,17.22,0,0,1-25.21-.13c-6.42-6.79-7.95-21.63-8.37-24.71a114.51,114.51,0,0,0-17.08,0c-1.11,9.12-3.34,19.43-8.4,24.78a17.19,17.19,0,0,1-25.2.13,19.7,19.7,0,0,1,.12-26.66c6.42-6.79,20.45-8.41,23.36-8.86A136,136,0,0,0,28.67,41Z"/></g></g></svg>