<svg xmlns="http://www.w3.org/2000/svg" viewBox="0 0 682.88 732"><defs><style>.cls-1{fill:#fff;}.cls-2{fill:#231f20;}</style></defs><title>mylogo-WHITE</title><g id="Layer_2" data-name="Layer 2"><g id="Layer_1-2" data-name="Layer 1"><rect class="cls-1" width="682.88" height="732"/><polygon class="cls-2" points="254.78 518.95 484.13 289.61 484.13 256.51 221.69 518.95 254.78 518.95"/><polygon class="cls-2" points="204.14 397.61 388.7 213.05 355.61 213.05 204.14 364.52 204.14 397.61"/><polygon class="cls-2" points="204.14 454.94 446.03 213.05 412.94 213.05 204.14 421.85 204.14 454.94"/><polygon class="cls-2" points="470.26 213.05 204.14 479.17 204.14 512.27 484.13 232.28 484.13 213.05 470.26 213.05"/><polygon class="cls-2" points="312.11 518.95 484.13 346.93 484.13 313.83 279.01 518.95 312.11 518.95"/><path class="cls-2" d="M425.22,427.86,352,501.09l16.74,16.74,23-23,11,11c14.44,14.44,36.83,14.44,50.74.52s13.92-36.3-.52-50.74Zm11.5,61.72c-5.33,5.34-13.18,5.65-18.3.53l-11-11,18.83-18.83,11,11C442.37,476.4,442.06,484.25,436.72,489.58Z"/><path class="cls-2" d="M238.85,296.18a39.94,39.94,0,1,0-40.09-39.94A39.65,39.65,0,0,0,238.85,296.18Zm0-57.79c9.83,0,17.4,7.11,17.4,17.85s-7.57,17.85-17.4,17.85-17.4-7.11-17.4-17.85S229,238.39,238.85,238.39Z"/></g></g></svg>