<svg xmlns="http://www.w3.org/2000/svg" xmlns:xlink="http://www.w3.org/1999/xlink" viewBox="0 0 449.67 449.67"><defs><style>.cls-1,.cls-3{fill:none;}.cls-2{font-size:22px;font-family:Inter-Bold, Inter;font-weight:700;}.cls-2,.cls-4{fill:#231f20;}.cls-3{stroke:#231f20;stroke-miterlimit:10;stroke-width:2px;}.cls-5{clip-path:url(#clip-path);}.cls-6{fill:#202020;}.cls-7{fill:#3f3f3e;}.cls-8{fill:#7d7d7d;}</style><clipPath id="clip-path"><circle class="cls-1" cx="224.84" cy="224.83" r="117.46"/></clipPath></defs><title>mylogo-white2_1</title><g id="Layer_2" data-name="Layer 2"><g id="Layer_1-2" data-name="Layer 1"><text class="cls-2" transform="translate(154.87 102.74) rotate(-26.89)">P</text><text class="cls-2" transform="translate(180.54 91.28) rotate(-15.36)">R</text><text class="cls-2" transform="translate(208.65 85.23) rotate(-5.35)">I</text><text class="cls-2" transform="translate(229.28 84.16) rotate(5.05)">N</text><text class="cls-2" transform="translate(259.19 88.31) rotate(17.47)">C</text><text class="cls-2" transform="matrix(0.87, 0.49, -0.49, 0.87, 287.82, 99.02)">E</text><text class="cls-2" transform="matrix(0.78, 0.63, -0.63, 0.78, 310.97, 113.8)"> </text><text class="cls-2" transform="translate(325.34 126.44) rotate(48.07)">*</text><text class="cls-2" transform="matrix(0.52, 0.85, -0.85, 0.52, 341.54, 146.29)">*</text><text class="cls-2" transform="matrix(0.36, 0.93, -0.93, 0.36, 353.86, 168.78)">*</text><text class="cls-2" transform="translate(361.86 193.11) rotate(79.53)">*</text><text class="cls-2" transform="translate(365.25 219.34) rotate(88.78)"> </text><text class="cls-2" transform="translate(364.95 238.43) rotate(98.99)">O</text><text class="cls-2" transform="translate(358.98 268.28) rotate(112.59)">W</text><text class="cls-2" transform="translate(343.03 301.24) rotate(126.21)">U</text><text class="cls-2" transform="translate(324.06 324.57) rotate(138.01)">S</text><text class="cls-2" transform="translate(301.97 342.58) rotate(150.04)">U</text><text class="cls-2" transform="translate(275.19 356.05) rotate(160.1)"> </text><text class="cls-2" transform="translate(256.92 361.77) rotate(169.38)">*</text><text class="cls-2" transform="matrix(-1, 0, 0, -1, 231.54, 365.31)">*</text><text class="cls-2" transform="matrix(-0.98, -0.18, 0.18, -0.98, 205.93, 364.21)">*</text><text class="cls-2" transform="matrix(-0.94, -0.35, 0.35, -0.94, 180.93, 358.48)">*</text><text class="cls-2" transform="matrix(-0.87, -0.5, 0.5, -0.87, 156.76, 347.79)"> </text><text class="cls-2" transform="matrix(-0.77, -0.64, 0.64, -0.77, 140.7, 337.55)">A</text><text class="cls-2" transform="matrix(-0.63, -0.78, 0.78, -0.63, 119.65, 318.29)">T</text><text class="cls-2" transform="translate(102.8 294.93) rotate(-116.85)">T</text><text class="cls-2" transform="translate(91.71 270.55) rotate(-105.55)">A</text><text class="cls-2" transform="translate(85.03 240.97) rotate(-93.25)">H</text><text class="cls-2" transform="translate(85.02 210.59) rotate(-83.2)"> </text><text class="cls-2" transform="translate(88.13 191.7) rotate(-73.88)">*</text><text class="cls-2" transform="translate(96.39 167.45) rotate(-63.35)">*</text><text class="cls-2" transform="matrix(0.6, -0.8, 0.8, 0.6, 108.96, 145.12)">*</text><text class="cls-2" transform="translate(125.36 125.4) rotate(-42.55)">*</text><text class="cls-2" transform="matrix(0.84, -0.55, 0.55, 0.84, 145.77, 108.62)"> </text><circle class="cls-3" cx="224.84" cy="224.83" r="128.03"/><circle class="cls-4" cx="224.84" cy="224.83" r="117.46"/><circle class="cls-3" cx="224.84" cy="224.83" r="174.23"/><g class="cls-5"><path class="cls-6" d="M106.62,181.25c0-23.89.14-47.79-.14-71.67,0-4.29,1.21-4.68,5-4.67q115.37.2,230.74.09c-.09,2-.25,3.94-.25,5.91q0,112.29,0,224.57c0,3.62-.58,5.09-4.7,5.06-32.31-.24-64.61-.23-96.91-.3l15-24.09c-4.46.27-6,3-8.86,3.32.2-3,2.6-4.21,4.14-6,.81-.95,2.58-1.86,1.79-3.17-1-1.75-2.63-.33-3.88.26-1.78.84-4.21,2.64-3.69-1.36.59-4.64-1.74-4.49-4.53-3.14-2.35,1.14-4,.5-5.91-.71-4-2.48-6.64-5.81-7.47-10.51-.79-4.52-2.83-8.7-3.26-13.38-.35-3.85-3.7-5.71-6.15-3.79-2.23,1.75-5,3.28-5.54,6.55s-2.66,6.11-4.57,8.86c-3.71-.67-5.09,3.34-8.15,4-13,3-26.26,2.77-39.3.95-8.15-1.14-11.05-9.82-6.88-17.13.65-1.14,1.45-2.26.71-3.67l.34-1.95c2.33-.81,4.9-1.24,6.95-2.51,3.89-2.4,6.87-1.13,9.75,1.55,1.68,1.57,3.21,3.32,4.91,4.87,2.11,1.93,4.82,2.15,7.39,1.68,1.63-.3,1.94-2.21,1.93-3.69,0-3.6.26-7.31-.46-10.8-1-4.6-1.42-9.05-6-12.83-3.09-2.57-3.1-8.72-5.79-13.1-4.95-8.1-2.8-18-4.6-27-.47-2.4.65-4.51,2.54-6.13,2.64-2.26,2.55-4.83,1.6-8a62.48,62.48,0,0,0-8-17.43c-2.87-4.26-3-8.66-1.21-13.63s4.76-9,6.84-13.65h0l2-2h0c6.66-3.22,10.07-17.25,5.48-22.5a2.49,2.49,0,0,0-2.69-.81c-6.3,2.14-13,3.6-16.85,9.94l-3.47,3.24a2.56,2.56,0,0,0-1.41,2l-.59,1-1.29,2.17c-4.5,7-6.5,15-8.69,22.88-1.43.37-2.88.69-4.29,1.12Q122.39,176.4,106.62,181.25Zm119.74,12.89,0,0,.11.3Zm-4-5,0,0,1.56,2C223.86,189.62,223,189.56,222.4,189.18ZM218,191.75c-.19,4,1.14,5.52,4.09,7.12A14.47,14.47,0,0,0,218,191.75Z"/><path class="cls-7" d="M212,284.21c.53-3.27,3.31-4.8,5.54-6.55,2.45-1.92,5.8-.06,6.15,3.79.43,4.68,2.47,8.86,3.26,13.38.83,4.7,3.49,8,7.47,10.51,1.93,1.21,3.56,1.85,5.91.71,2.79-1.35,5.12-1.5,4.53,3.14-.52,4,1.91,2.2,3.69,1.36,1.25-.59,2.83-2,3.88-.26.79,1.31-1,2.22-1.79,3.17-1.54,1.8-3.94,3-4.14,6,2.83-.31,4.4-3.05,8.86-3.32l-15,24.09c-1.26-.07-2.6.48-3.92-.56q1.83-4,3.63-8c.34-.75.85-1.56.29-2.33-.72-1-1.79-.66-2.71-.34a13.16,13.16,0,0,0-7.06,5.84c-2.13,3.48-5.07,5.41-9.28,5.41q-31.12,0-62.26.13-26.21.09-52.41.26V181.25q15.76-4.84,31.55-9.67c1.41-.43,2.86-.75,4.29-1.12,0,3.72-2.3,6.77-2.92,10.32-.71,4.08.21,4.89,4.3,4.25,2.21-.34,5.18-2.89,6.61,0,1.29,2.59-2.34,3.38-3.86,4.92-2.06,2.07-2.75,5.23-1.75,7.23,1.27,2.52,3.21-.26,4.81-1,.58-.28,1.28-.3,1.89-.54,4.9-1.9,5.07,3.59,7.83,5a1.27,1.27,0,0,1,0,2.13c-2.37,1.56-4.62-.06-6.9-.53-.31-.06-.56-.37-.86-.47-3.54-1.25-6.47-1-7.77,3.21a34.51,34.51,0,0,1-6.36,11.61,20.72,20.72,0,0,0-3.74,8.5c-1.1,4.61,0,8.18,5.14,9.51a18.75,18.75,0,0,1,6.4,5.3c-.87,3.07-.23,12.67-.61,17.18-.45,5.41,1.61,9.09,5,12.56a5.05,5.05,0,0,1,1.47,4.45c-.23,1.83.25,3.3,2.57,3.15.74,1.41-.06,2.53-.71,3.67-4.17,7.31-1.27,16,6.88,17.13,13,1.82,26.26,2.07,39.3-.95,3.06-.7,4.44-4.71,8.15-4,.29,1.43-1.33,4.17,1,4.07,4-.19,3.07,2.8,4.14,4.63.94,1.63.75,5.05,3.8,4,2.23-.75,2.9-3.41,2.76-5.81a5,5,0,0,0-1.1-3.17c-2.76-2.45-2.71-5.37-1.92-8.5C217,284.56,215.49,283.4,212,284.21Zm-3.6,42.29c2.37-1.3,3.7-2.6,4.25-4.57C210.36,322.42,208.88,323.59,208.36,326.5Z"/><path class="cls-8" d="M106.62,340.66q26.2-.14,52.41-.26,31.13-.12,62.26-.13c4.21,0,7.15-1.93,9.28-5.41a13.16,13.16,0,0,1,7.06-5.84c.92-.32,2-.67,2.71.34.56.77,0,1.58-.29,2.33q-1.8,4-3.63,8c1.32,1,2.66.49,3.92.56,32.3.07,64.6.06,96.91.3,4.12,0,4.71-1.44,4.7-5.06q-.12-112.28,0-224.57c0-2,.16-3.94.25-5.91,1.58-.33,1,.89,1,1.49q0,117.83.11,235.66c0,3.51-1.95,2.45-3.56,2.45q-103.18,0-206.36,0c-7.59,0-15.19-.22-22.76.1C107.17,344.87,105.87,344.05,106.62,340.66Z"/><path class="cls-8" d="M153.77,277.26c-2.32.15-2.8-1.32-2.57-3.15a5.05,5.05,0,0,0-1.47-4.45c-3.43-3.47-5.49-7.15-5-12.56.38-4.51-.26-14.11.61-17.18l1.74-.57c2.16-.5,2.42-1.92,1.82-3.76-.85-3.54-2-7-1.7-10.76a23.87,23.87,0,0,0,0-2.93c-.24-1.74-1.09-3.21-3-3.38A3.72,3.72,0,0,0,140.3,221c-.85,2.58,2.27.92,2.79,2.19a11.68,11.68,0,0,1,.43,1.79l-1.18.13c-2.16,0-3.18.91-2.27,3.16l1.5,2.41-.31,1.09c-1.84.09-2.76.93-2.36,2.87-5.13-1.33-6.24-4.9-5.14-9.51a20.72,20.72,0,0,1,3.74-8.5A34.51,34.51,0,0,0,143.86,205c1.3-4.2,4.23-4.46,7.77-3.21.3.1.55.41.86.47,2.28.47,4.53,2.09,6.9.53a1.27,1.27,0,0,0,0-2.13c-2.76-1.46-2.93-6.95-7.83-5-.61.24-1.31.26-1.89.54-1.6.78-3.54,3.56-4.81,1-1-2-.31-5.16,1.75-7.23,1.52-1.54,5.15-2.33,3.86-4.92-1.43-2.9-4.4-.35-6.61,0-4.09.64-5-.17-4.3-4.25.62-3.55,2.93-6.6,2.92-10.32,2.19-7.89,4.19-15.86,8.69-22.88l1.29-2.17.59-1,1.41-2,3.47-3.24c2.44-1.65,4.81-3.42,7.35-4.89,1.56-.91,3.47-1.44,5,.17s.49,3.07-.2,4.55-1.45,2.58-1.95,4c-.39,1.08-.48,2.83.9,2.88,5.88.21,3.92,3.62,3,6.7h0a2.6,2.6,0,0,0-2,2h0c-3.67,2.35-5.44,6-7,9.9-1.95,5-2.79,10.57-6.17,15-2.43,3.15-2.19,4.86,1.68,6.58,5.76,2.55,7.34,6.09,6.69,12.24a23.4,23.4,0,0,1-3.57,9.61c-1.88,3.19-5.54,6.52-4.2,10.14a251.21,251.21,0,0,1,7.72,24.94c.6,2.34,2.07,4.46,3.14,6.68a16.45,16.45,0,0,1,1.58,7.17c0,3.31.34,6.53-3.83,8.1-3.74,1.42-6.63,1.4-9-2.25-1-1.61-1.84-1.45-2.51.56a20.88,20.88,0,0,0-.49,12.12Z"/><path class="cls-7" d="M154.11,275.31a20.88,20.88,0,0,1,.49-12.12c.67-2,1.48-2.17,2.51-.56,2.34,3.65,5.23,3.67,9,2.25,4.17-1.57,3.84-4.79,3.83-8.1a16.45,16.45,0,0,0-1.58-7.17c-1.07-2.22-2.54-4.34-3.14-6.68A251.21,251.21,0,0,0,157.47,218c-1.34-3.62,2.32-7,4.2-10.14a23.4,23.4,0,0,0,3.57-9.61c.65-6.15-.93-9.69-6.69-12.24-3.87-1.72-4.11-3.43-1.68-6.58,3.38-4.4,4.22-9.94,6.17-15,1.51-3.88,3.28-7.55,7-9.9-2.08,4.65-5.1,8.76-6.84,13.65s-1.66,9.37,1.21,13.63a62.48,62.48,0,0,1,8,17.43c1,3.21,1,5.78-1.6,8-1.89,1.62-3,3.73-2.54,6.13,1.8,9-.35,18.95,4.6,27,2.69,4.38,2.7,10.53,5.79,13.1,4.56,3.78,5,8.23,6,12.83.72,3.49.46,7.2.46,10.8,0,1.48-.3,3.39-1.93,3.69-2.57.47-5.28.25-7.39-1.68-1.7-1.55-3.23-3.3-4.91-4.87-2.88-2.68-5.86-4-9.75-1.55C159,274.07,156.44,274.5,154.11,275.31Z"/><path class="cls-7" d="M172,152.56c1-3.08,2.92-6.49-3-6.7-1.38-.05-1.29-1.8-.9-2.88.5-1.38,1.33-2.62,1.95-4s1.62-3.06.2-4.55-3.44-1.08-5-.17c-2.54,1.47-4.91,3.24-7.35,4.89,3.83-6.34,10.55-7.8,16.85-9.94a2.49,2.49,0,0,1,2.69.81C182,135.31,178.63,149.34,172,152.56Z"/><path class="cls-8" d="M212,284.21c3.53-.81,5.06.35,4.1,4.1-.79,3.13-.84,6.05,1.92,8.5a5,5,0,0,1,1.1,3.17c.14,2.4-.53,5.06-2.76,5.81-3,1-2.86-2.39-3.8-4-1.07-1.83-.16-4.82-4.14-4.63-2.32.1-.7-2.64-1-4.07C209.3,290.32,211.3,287.61,212,284.21Z"/><path class="cls-7" d="M218,191.75a14.47,14.47,0,0,1,4.09,7.12C219.11,197.27,217.78,195.76,218,191.75Z"/><path class="cls-7" d="M222.4,189.18c.59.38,1.46.44,1.59,2l-1.56-2Z"/><path class="cls-7" d="M154.44,142.43l-1.41,2A2.56,2.56,0,0,1,154.44,142.43Z"/><path class="cls-7" d="M152.44,145.41l-1.29,2.17Z"/><path class="cls-7" d="M170,154.54a2.6,2.6,0,0,1,2-2Z"/><polygon class="cls-7" points="226.35 194.14 226.51 194.39 226.4 194.09 226.35 194.14"/><path class="cls-7" d="M222.43,189.15l0,0Z"/><path class="cls-7" d="M226.4,194.09l0,0Z"/><path class="cls-6" d="M141.57,230.66l-1.5-2.41,2.27-3.16,1.18-.13,3.64-.13c-.31,3.73.85,7.22,1.7,10.76-2.22.47-2.05,2.1-1.82,3.76l-1.74.57a18.75,18.75,0,0,0-6.4-5.3c-.4-1.94.52-2.78,2.36-2.87l1-.21Z"/><path class="cls-6" d="M208.36,326.5c.52-2.91,2-4.08,4.25-4.57C212.06,323.9,210.73,325.2,208.36,326.5Z"/><path class="cls-7" d="M147.16,224.83l-3.64.13a11.68,11.68,0,0,0-.43-1.79c-.52-1.27-3.64.39-2.79-2.19a3.72,3.72,0,0,1,3.88-2.46c1.89.17,2.74,1.64,3,3.38A23.87,23.87,0,0,1,147.16,224.83Z"/><path class="cls-7" d="M147,239.35c-.23-1.66-.4-3.29,1.82-3.76C149.46,237.43,149.2,238.85,147,239.35Z"/><path class="cls-7" d="M142.34,225.09l-2.27,3.16C139.16,226,140.18,225.13,142.34,225.09Z"/><path class="cls-7" d="M141.57,230.66l.71.88-1,.21Z"/></g></g></g></svg>