<?xml version="1.0" encoding="utf-8"?>
<!-- Generator: Adobe Illustrator 23.0.6, SVG Export Plug-In . SVG Version: 6.00 Build 0)  -->
<svg version="1.1" id="Layer_1" xmlns="http://www.w3.org/2000/svg" xmlns:xlink="http://www.w3.org/1999/xlink" x="0px" y="0px"
	 viewBox="0 0 682.9 732" style="enable-background:new 0 0 682.9 732;" xml:space="preserve">
<style type="text/css">
	.st0{fill:#FFFFFF;}
	.st1{fill:none;stroke:#231F20;stroke-width:6;stroke-miterlimit:10;}
</style>
<title>mylogo-WHITE</title>
<g>
	<g id="Layer_1-2">
		<rect class="st0" width="682.9" height="732"/>
		<g id="Layer_1-2_1_">
			<polygon class="st1" points="254.8,572.3 484.1,342.9 484.1,309.8 221.7,572.3 			"/>
			<polygon class="st1" points="204.1,450.9 388.7,266.4 355.6,266.4 204.1,417.9 			"/>
			<polygon class="st1" points="204.1,508.3 446,266.4 412.9,266.4 204.1,475.2 			"/>
			<polygon class="st1" points="470.3,266.4 204.1,532.5 204.1,565.6 484.1,285.6 484.1,266.4 			"/>
			<polygon class="st1" points="312.1,572.3 484.1,400.3 484.1,367.2 279,572.3 			"/>
			<path class="st1" d="M425.2,481.2L352,554.4l16.7,16.7l23-23l11,11c14.4,14.4,36.8,14.4,50.7,0.5c13.9-13.9,13.9-36.3-0.5-50.7
				L425.2,481.2z M436.7,542.9c-5.3,5.3-13.2,5.6-18.3,0.5l-11-11l18.8-18.8l11,11C442.4,529.7,442.1,537.6,436.7,542.9z"/>
			<path class="st1" d="M238.8,349.5c22.1-0.1,39.9-18,39.8-40.1c-0.1-22.1-18-39.9-40.1-39.8c-22,0.1-39.8,17.9-39.8,39.9
				c-0.2,21.9,17.5,39.8,39.4,39.9C238.4,349.5,238.6,349.5,238.8,349.5z M238.8,291.7c9.8,0,17.4,7.1,17.4,17.9
				s-7.6,17.9-17.4,17.9s-17.4-7.1-17.4-17.9S229,291.7,238.8,291.7L238.8,291.7z"/>
		</g>
	</g>
</g>
</svg>
