<svg xmlns="http://www.w3.org/2000/svg" viewBox="0 0 103.11 100"><defs><style>.cls-1{fill:#0f9bf5;}</style></defs><title>Onetab-color</title><g id="Layer_2" data-name="Layer 2"><g id="Layer_1-2" data-name="Layer 1"><path id="Path_1" data-name="Path 1" class="cls-1" d="M72.85,56.66v24a12.11,12.11,0,0,1-7.62,11.23L47.08,99.13A12.09,12.09,0,0,1,30.48,87.9V56.67L3,23.72c-1.81-2.18-3-3.64-3-6.47a5.7,5.7,0,0,1,5.71-5.68H6c3.34,0,4.4,2.16,6.32,4.39L41.18,50.6a6,6,0,0,1,1.4,3.91V87.9l18.16-7.27V54.51a6,6,0,0,1,1.4-3.91L91,16V12.11H21.41A6.06,6.06,0,1,1,21.41,0H91a12.11,12.11,0,0,1,12.11,12.11V16a12.14,12.14,0,0,1-2.81,7.75Z"/></g></g></svg>