<svg xmlns="http://www.w3.org/2000/svg" viewBox="0 0 80.28 100"><defs><style>.cls-1{fill:#fff;fill-rule:evenodd;}</style></defs><title>Porsche-white</title><g id="Layer_2" data-name="Layer 2"><g id="Layer_1-2" data-name="Layer 1"><path class="cls-1" d="M62.88,85.81c-6,5.49-11.22,8.45-22.15,14.19A105.74,105.74,0,0,1,18.15,86.31C10.19,80.12,4.47,70.05,4,63.88L0,5.13c26.91-7,55.53-6.84,80.28.47l-4,58.15C75.74,69,71,79.26,62.88,85.81Zm8.76-24L75.28,9.9C54,3.11,28.45,3,4.94,9.18L8.65,61.79C9,67.26,13,75.62,20.53,82c4.54,3.86,13.44,10.33,20,12.82a101.54,101.54,0,0,0,19.92-13.3c6.76-6.17,10.76-13.84,11.17-19.72Zm-12,18.34a91.52,91.52,0,0,1-19,12.8c-6-1.87-15-8.76-19.29-12.47-7.5-6.47-10.54-13.25-11-19.66L6.61,10.62C29,4.74,53.44,4.74,73.74,11.21l-3.6,49.55c-.52,6.59-3.59,12.89-10.55,19.41ZM8.28,11.6,9,20.25c21.37-5.34,43.76-4.8,62.34.82l.8-8.81C52.89,6.36,29.51,6,8.28,11.6Zm53.15,3.21L56.61,14l-.18,2.27L54.86,16l.37-6,1.6.23-.17,2.31,4.89.79.16-2.31,1.64.31-.5,6-1.59-.29.17-2.29Zm-23.26-2a1.43,1.43,0,0,1-1.37-.68,3.31,3.31,0,0,1,0-2.28,1.37,1.37,0,0,1,1.26-.68H44.9v1.48H38.45c-.32,0-.33.71,0,.71h5.1a1.37,1.37,0,0,1,1.29.83,4.47,4.47,0,0,1,0,2.12c-.14.47-.68.73-1.35.73H36.77V13.48h6a.36.36,0,0,0,.33-.38.37.37,0,0,0-.33-.33Zm-4,.6a.55.55,0,0,0-.57-.55h0l-4.54.33.09,2.24-1.47.16L27.4,9.62l6.75-.51a1.29,1.29,0,0,1,1.43,1.14c.05.64.08,1.47-.43,1.82a1.6,1.6,0,0,1,.54,1.41l0,1.52-1.47.06,0-1.69Zm-1-1.92c.58,0,.53-.93,0-.88l-4.32.33.05.82Zm-14.14-.79a47.55,47.55,0,0,1,5.71-.89,1.13,1.13,0,0,1,1.3.83,14.74,14.74,0,0,1,.2,4.16,1.18,1.18,0,0,1-1,1,48.57,48.57,0,0,1-5.64.8,1.17,1.17,0,0,1-1.15-.78,15.57,15.57,0,0,1-.29-4.11,1.2,1.2,0,0,1,.88-1Zm5.39,3.61a.44.44,0,0,0,.3-.4,8.83,8.83,0,0,0-.1-2.07c0-.16-.17-.26-.47-.24a37.33,37.33,0,0,0-4.08.6c-.28.07-.39.23-.41.38a11,11,0,0,0,.17,2.09.34.34,0,0,0,.35.23,35.57,35.57,0,0,0,4.24-.59Zm23.82-3.36a.52.52,0,0,0-.56.35,13,13,0,0,0-.11,2c0,.11.19.41.35.43,1.44.2,4.25.46,5.78.56l-.1,1.55c-2-.09-4.1-.41-6.28-.56a1.2,1.2,0,0,1-1.26-1.13,20,20,0,0,1,.23-3.84,1.27,1.27,0,0,1,1.38-.91,59.4,59.4,0,0,1,6.24.6l-.1,1.54c-1.28-.11-3.7-.48-5.57-.56Zm-32.87.45c2-.48,2.35,3.13.65,3.55l-4.74,1.18.23,2.33-1.49.4-.52-6.07,5.87-1.39Zm0,2.36c.49-.11.42-1-.1-.87l-4.28,1,.1.9Zm50.26,2-.1,1,4.69,1.19-.13,1.35-6.29-1.48.54-6.11,6.34,1.53-.14,1.43-4.72-1.14-.09,1,4.68,1.14-.11,1.21-4.67-1.12ZM20.26,33.11a10.24,10.24,0,0,0-1.55,3.36,1.24,1.24,0,0,0,0,.78,19.41,19.41,0,0,1,1.9-.7c.18-.41.28-.88.44-1.26A7.5,7.5,0,0,1,21.69,34a5,5,0,0,1,3.5-2.27,9.49,9.49,0,0,0-1.51,1.68A8.07,8.07,0,0,0,23,34.79a4.08,4.08,0,0,0-.25,1.07,8.29,8.29,0,0,1,1.58-.32,1.48,1.48,0,0,0,.49-.68,6,6,0,0,1,1.87-2.07,2.23,2.23,0,0,1,1.57-.32A6.25,6.25,0,0,0,27,33.81a4,4,0,0,0-.62,1.48,4.7,4.7,0,0,0,1.24-.06l0-1.15H39.64V17.58A112.6,112.6,0,0,0,9.05,21.51l2.25,31H27.56v-6c-.65-.49-3.69-.84-5.56-.11a13.25,13.25,0,0,0-2.61,1.34l-1.89,1.5a1,1,0,0,0-.2.72.91.91,0,0,1-1,.86,2.06,2.06,0,0,0-1.06-.08c-.4.09-.75-.41-.78-.69s.22-.81.24-1a1.12,1.12,0,0,1,.44-1,.82.82,0,0,1,.8,0,.31.31,0,0,0,.23,0,2.57,2.57,0,0,0,.37-.28c0-.34,0-.87,0-1.16a7.15,7.15,0,0,1,.28-1.45,8.66,8.66,0,0,1,.72-1.57,2.62,2.62,0,0,1,1.95-1.34A6,6,0,0,0,19,43a10,10,0,0,0-.81,2.37A4.53,4.53,0,0,0,18,46.68a12.82,12.82,0,0,1,1.36-.86,9.12,9.12,0,0,1,.84-2.39,3.1,3.1,0,0,1,2.3-1.6,6.57,6.57,0,0,0-1.38,2.48,1.89,1.89,0,0,0-.13.74,3.7,3.7,0,0,1,1.13-.32,8.4,8.4,0,0,1,.64-1.34,3.28,3.28,0,0,1,2.28-1.6,6.81,6.81,0,0,0-1.14,2,2.07,2.07,0,0,0-.13.62,10,10,0,0,1,1.15,0,15.78,15.78,0,0,1,1.23-1.22,6.48,6.48,0,0,1,1.38-.81V37.26a5.26,5.26,0,0,0-2-.12,25,25,0,0,0-8,2.87,5.51,5.51,0,0,1-.16,1,1.39,1.39,0,0,1-.66.65c-.47.21-1-.43-1.27-.34a1.37,1.37,0,0,1-1.37-.1,1.13,1.13,0,0,1-.3-1.09,1.69,1.69,0,0,1,.5-.67c.17-.17.05-.81.65-1.2a1.53,1.53,0,0,1,1.45.18.49.49,0,0,0,.24-.14c.06-.17.15-.71.24-1.13A10.52,10.52,0,0,1,17.12,36a8.57,8.57,0,0,1,2-3.23,3.85,3.85,0,0,1,2.46-1c-.08.12-1,1-1.3,1.34Zm1.94-9.93c.64-.88,2.32-2.23,3.61-2.15a8.45,8.45,0,0,0-1.76,2,8.07,8.07,0,0,0-1.14,3,18.51,18.51,0,0,1,2-.57,8.46,8.46,0,0,1,2-3,3.28,3.28,0,0,1,2.26-.8,5.06,5.06,0,0,1-.72.67,3.87,3.87,0,0,0-.92,1.34,11.72,11.72,0,0,0-.46,1.53,11.72,11.72,0,0,1,1.82.12,4.39,4.39,0,0,1,3.95-1.88c-.78.42-2.19,1.64-2.1,2.31,1.15.75,2.88,2.32,3,3.77A8.71,8.71,0,0,0,31,27.65a10.27,10.27,0,0,0-5-.34A27,27,0,0,0,17.08,31a3.34,3.34,0,0,1-.52,1.35,1.5,1.5,0,0,1-.83.49,2,2,0,0,1-1.18-.28c-.23-.13-.82,0-1.2-.17a1,1,0,0,1-.56-1.11c.1-.53.63-.85.7-1.35a1.28,1.28,0,0,1,.92-1.11,1.6,1.6,0,0,1,.89.17c.12.06.25.16.36.2S15.93,29,16,29s.3-1.62.45-2.29a15.2,15.2,0,0,1,.63-1.87c.66-1.87,2.68-3.74,4.3-3.64a17.7,17.7,0,0,0-1.33,1.33c-1.16,1.37-1.46,2.82-1.89,5.31.9-.42,1.68-.72,2.49-1a14.93,14.93,0,0,1,.77-2.25,8.51,8.51,0,0,1,.76-1.35Zm48.94,2.07-30,0,0,8.82H70.47l.67-8.83ZM44.58,70.93a1.27,1.27,0,0,1-.95,0,.9.9,0,0,1-.53-.8c0-.28.25-.63.31-.94a1.09,1.09,0,0,1,.42-1.06,1.17,1.17,0,0,1,.61-.14c.21,0,.38.18.59.21a4,4,0,0,0,.81-.39,15.89,15.89,0,0,0,.38-2.06,13.52,13.52,0,0,1-5.14,1.32V91.19a86.74,86.74,0,0,0,18-12.57c5.3-5.16,8.87-10.39,9.41-17.92l.5-6.86-15.93,0a13.35,13.35,0,0,1-5,10.89,14.77,14.77,0,0,0-.3,2.31,14.09,14.09,0,0,1,1.41-.52,19.2,19.2,0,0,1,.9-1.7,6.85,6.85,0,0,1,2.51-2.36,2.78,2.78,0,0,1,2.14-.37,7.06,7.06,0,0,0-2.06,1.68,4.85,4.85,0,0,0-1.07,1.67c0,.11-.05.23-.07.34a20.76,20.76,0,0,1,2.37-.41c.07,0,.25-.39.38-.57a7.2,7.2,0,0,1,.54-.67,3.68,3.68,0,0,1,3-1.37,5.46,5.46,0,0,0-1.85,2c-.08.15-.18.36-.14.45s1,0,1.51.08a5.89,5.89,0,0,1,1.85-.82,2.75,2.75,0,0,1,2.11.32A3.13,3.13,0,0,0,60,65a1.93,1.93,0,0,0-.88.62,5.69,5.69,0,0,1,1.64,1,6,6,0,0,1,.94,1,3.11,3.11,0,0,1,.42,2.77,5.18,5.18,0,0,0-.34-.76,5,5,0,0,0-1.15-1.33c-1.91-1.45-4.65-1.52-6.9-1.07-1.92.39-5.39,1.12-7.65,2.72a1.12,1.12,0,0,1-.38.95c-.35.26-.83-.09-1.08.05Zm3.74,2.71c.25-.39.55-1,.7-1.19a4.8,4.8,0,0,1,1.82-1.72,3.42,3.42,0,0,1,2.37-.3,4.13,4.13,0,0,0-1.38.67,7.42,7.42,0,0,0-1.4,1.31,4.4,4.4,0,0,0-.43.79,10.38,10.38,0,0,1,1.79-.26,10.63,10.63,0,0,1,1.61-1.63,2.5,2.5,0,0,1,2-.37,4.94,4.94,0,0,0-2,1.57,1.67,1.67,0,0,0-.18.35c.31,0,.9.08,1.22.12a11.19,11.19,0,0,1,1.3-.64,1.83,1.83,0,0,1,1.88.23,2.75,2.75,0,0,0-1,.17,1.55,1.55,0,0,0-.77.58A5.24,5.24,0,0,1,58,75a1.84,1.84,0,0,1,.29,1.36,3.34,3.34,0,0,0-.87-.79,7.44,7.44,0,0,0-1.16-.63,11.2,11.2,0,0,0-5-.5,15.25,15.25,0,0,0-5.8,2.14,1,1,0,0,1-.34,1c-.47.24-.94-.17-1-.14a1.31,1.31,0,0,1-.79.06.8.8,0,0,1-.34-.91,2.19,2.19,0,0,1,.42-.57.78.78,0,0,1,.74-.88c.26,0,.45.18.66.22l.43-.21c.11-.42.29-.85.41-1.2a7,7,0,0,1,.84-1.68A3.27,3.27,0,0,1,49,70.64a4.12,4.12,0,0,0-.74.67,7.67,7.67,0,0,0-.89,1.35,4.57,4.57,0,0,0-.47,1.62c.48-.23,1-.44,1.45-.64Zm-.17,4.53A1.85,1.85,0,0,1,49,78a3.27,3.27,0,0,0-1.52,1.9c0,.08,0,.25.06.3s.71-.16.84-.22a4.88,4.88,0,0,1,.44-.64,2.16,2.16,0,0,1,2.23-1.09,2.6,2.6,0,0,0-1.32,1.22c-.05.1-.09.27,0,.27l.9,0a2.24,2.24,0,0,1,1.74-.57,2.75,2.75,0,0,0-.8.54.5.5,0,0,0-.15.25,6.75,6.75,0,0,1,1.41.93,2.47,2.47,0,0,1,.75,1.17,7,7,0,0,0-3-1.26,7.28,7.28,0,0,0-1.69.17,15.63,15.63,0,0,0-4.13,1.67.9.9,0,0,1-.31.76c-.19.15-.59.23-.74,0s-.63,0-.75-.14a1.18,1.18,0,0,1-.16-.48.73.73,0,0,1,.32-.59s0-.52.39-.68a.65.65,0,0,1,.62,0l.18-.11a5.75,5.75,0,0,1,.35-1.6c.27-.77,1.18-1.71,2-1.68a4.7,4.7,0,0,0-1.1,2,5.73,5.73,0,0,0-.06.81,4.6,4.6,0,0,1,.59-.29c.09-.2.33-.71.45-.93a4,4,0,0,1,1.67-1.61Zm-36-16.58A18.37,18.37,0,0,0,15,70.47H39.46l-.05-3.4c-3.14,0-7.94-2.08-9.83-5.46l-17.48,0ZM28.89,54c0,15.51,22.73,15.51,22.73.16V35.47H28.89Zm7.33-7.44a2.22,2.22,0,0,0,.55-1c0-.27-.71-.26-1-.09a1.63,1.63,0,0,0-.41.45.42.42,0,0,1-.54.08c-.16-.15.13-.41.12-.57s-.51.14-.75,0a.32.32,0,0,1-.06-.47c.06-.07.23,0,.3-.12a.58.58,0,0,0,.1-.32c0-.13.17-.18.26-.28a4.85,4.85,0,0,1,1-.83c.27,0,.67.17.91,0,0,0,.15-.11.06-.16l-.65-.43a.44.44,0,0,1,.15-.36c.3-.27.77-.09,1.17-.15a1.34,1.34,0,0,0,.73-.34c0,.2-.07.4-.07.61.25.24.51.44.75.67A4.09,4.09,0,0,1,40,46c0,.43,0,.86,0,1.57a5.09,5.09,0,0,0-.49-4.15,7.14,7.14,0,0,0-.9-1c0-.34.32-.91.59-.7s-.08.34.1.45a1,1,0,0,0,.63.09,5.51,5.51,0,0,1,.84-.18c.13,0,.34-.07.38.06s-.06.14-.15.17-.28,0-.37.11a.29.29,0,0,0-.13.26.23.23,0,0,0,.31.15,7.35,7.35,0,0,1,1.55-.23c.28,0,.22.2.08.28a1,1,0,0,1-.32.1c-.5.06-.87.09-.81.37s.35,0,.42.16-.13.23-.12.33c0,.32.67.25.95.19s.55-.22.65-.09a.23.23,0,0,1-.1.34,2.49,2.49,0,0,0-1,.4.35.35,0,0,0,.19.5,6.28,6.28,0,0,1,1,.13.24.24,0,0,1,.2.22c0,.13-.13.17-.23.21a5,5,0,0,0-.69.13c-.06,0-.18.07-.16.13s.3.1.51.12.34.1.34.23-.11.17-.32.16a1.9,1.9,0,0,0-.78.07s-.29.05-.28.17.28,0,.35.19-.13.21-.14.38,0,.1.1.13a1.25,1.25,0,0,0,.69,0c.22,0,.31.26.25.29-.29.16-.95,0-1.1.09s.35.43.33.5a.24.24,0,0,1-.13.17c-.29.11-.65-.1-.86,0s-.11.38-.21.52-.44.1-.58.2a.42.42,0,0,0,0,.62,1.83,1.83,0,0,0,.49.33,5.43,5.43,0,0,0,2.63.81,6.54,6.54,0,0,1,1.54.06,4.8,4.8,0,0,1,1.31.68,1,1,0,0,0,.84.07.47.47,0,0,0,.3-.5c-.13-.67-1.24-.88-1.25-1.55a3.48,3.48,0,0,0-.34-1.68c-.09-.19-.11-.61.11-.67s.24.2.38.14c.64-.25.67-1.27,1.34-1.47.4-.11,1.72-.12,1.61-.29a1,1,0,0,1,0-1.06c.1-.13.38-.27.49-.13s-.23.38-.2.64.38.72.11,1-1.36.2-1.72.74c-.21.32-.24.58,0,.56s.39-.28.58-.42c.35-.25.62-.35.82-.17s0,.27-.22.32-.52.44-.42.55,1-.57,1.2-.42-.41.62-.32.76.46-.1.57,0-.28.6-.53.77-.12.6-.39.74-.46.42-.42.46a.14.14,0,0,0,.22,0c.35-.22.78-.48,1-.42s0,.52-.17.75.52.1.42.29a1,1,0,0,0-.06.57c.05.26-.69.31-.76.49a.18.18,0,0,0,.15.26.36.36,0,0,1,.21.65,1.15,1.15,0,0,1-1,.27,3.48,3.48,0,0,1-1.38-.47.21.21,0,0,0-.34.1c0,.14.12.4.19.62a1.8,1.8,0,0,1-.07,1.05c-.23.67-.86,1.22-1,2a1.21,1.21,0,0,0,.11.67,5.08,5.08,0,0,0,.75,1.21c0,.12.1.26.05.36s-.59.53-.74.68a2.92,2.92,0,0,0-1,1.65c0,.22-.52.45-.85.54a1.93,1.93,0,0,0-.69.3c0,.18.08.34.1.52s-.36.48-.67.58a1.35,1.35,0,0,1-.46.1c-.06,0-.08-.11-.07-.16a4.9,4.9,0,0,1,.35-1.14.93.93,0,0,1,.28-.34l1.2-1L45.87,59a.53.53,0,0,0,.12-.32A.91.91,0,0,0,45.7,58a3.51,3.51,0,0,0-.84-.38A7,7,0,0,1,44,57c-.19-.09-.3.24-.32.43a8.44,8.44,0,0,0,0,.87.43.43,0,0,1-.08.29c-.79.45-1.78.62-2.36,1.34a1.53,1.53,0,0,1-.32.35c-.33.23-.88,0-1.12.32-.11.16,0,.37,0,.55s-.22.23-.37.31a2.08,2.08,0,0,1-.64.16c-.25-.12-.1-.46,0-.71a1.51,1.51,0,0,1,.39-.67,5.53,5.53,0,0,1,.88-.68c.19-.09.48-.09.72-.18a2.67,2.67,0,0,0,.7-.34,2.24,2.24,0,0,0,.85-.85,1.31,1.31,0,0,0-.08-1.34,5.89,5.89,0,0,1-.72-1,.7.7,0,0,1,.12-.66s-.11-.08-.17-.06a8.46,8.46,0,0,1-3.53-.53c-.3-.12-.6-.49-.81-.52s-.31.22-.5.27a3.55,3.55,0,0,1-1.08,0,11.63,11.63,0,0,1-1.92-.43.82.82,0,0,0-.3.1c-.14.09-.16.29-.17.46s.05.43,0,.67-.07.24,0,.35.17.19.26.28a1,1,0,0,1,.18.67c0,.26-.09.6.12.78s.32,0,.49,0,.24.26.25.43a1.43,1.43,0,0,1-.27.74c-.07.08-.2,0-.29,0a1.32,1.32,0,0,1-.6-.52c-.06-.1-.06-.23-.12-.34a1.33,1.33,0,0,0-.43-.42,1,1,0,0,1-.28-.67,3.77,3.77,0,0,1,0-.67,4.31,4.31,0,0,0-.09-1.34,2.24,2.24,0,0,1-.17-1,.58.58,0,0,1,.3-.38,9.21,9.21,0,0,0,2.39-.41l-.5-.5c-.13,0-.23.13-.35.13s-.32-.2-.37-.26a4.22,4.22,0,0,1-.55-1.29,1,1,0,0,0-.45-.43,1.12,1.12,0,0,0-.44-.09,1.31,1.31,0,0,0-.84,1c0,.12.06.22,0,.33a.78.78,0,0,1-.32.48,1.25,1.25,0,0,0-.33.49.73.73,0,0,0,.08.5.46.46,0,0,1,.07.34c-.1.27-.77.56-1,.56s-.13-.09-.15-.17a1.55,1.55,0,0,1,0-.77,1.74,1.74,0,0,0,.39-.67,5.48,5.48,0,0,1,.21-1,22.41,22.41,0,0,1,1.7-2.35.42.42,0,0,1,.41-.08c.46.29.73.65,1.16.88.24.12.53.3.74.13s.24-1.29.38-1.58a11.11,11.11,0,0,1,1.4-1.68Zm8.36-7-.19.7h-.67l.87-3.3h.77l.84,3.28h-.68l-.16-.68Zm.68-.6L45,37.63,44.68,39Zm-2.45-1.05c0-.22-.06-.51-.23-.57a.41.41,0,0,0-.47.11,2,2,0,0,0-.13,1,4,4,0,0,0,.07.9c.14.45.52.47.7.19a1.29,1.29,0,0,0,.09-.63h-.39v-.48h1v1.78H43V40a1.79,1.79,0,0,1-.32.23,1,1,0,0,1-.75,0,1.15,1.15,0,0,1-.52-.77,6.54,6.54,0,0,1-.05-1.34,1.43,1.43,0,0,1,.59-1.16,1.29,1.29,0,0,1,.95,0,1,1,0,0,1,.54,1ZM31.56,37a.82.82,0,0,1,.36.84h-.53c0-.34-.14-.5-.43-.51a.44.44,0,0,0-.39.35c0,.44.39.53.65.62a1,1,0,0,1,.63,1.45,1.06,1.06,0,0,1-.67.52,1.17,1.17,0,0,1-1-.2.91.91,0,0,1-.3-.87h.59a.71.71,0,0,0,.09.38.4.4,0,0,0,.31.18.43.43,0,0,0,.46-.4V39.3c0-.52-.89-.55-1.19-.88a1,1,0,0,1,0-1.3A1.07,1.07,0,0,1,31.56,37Zm17,2.18c0,.13,0,.57,0,.86a.78.78,0,0,0,.09.2H48c-.08,0-.09-.15-.1-.28,0-.33,0-1.13-.31-1.13h-.4v1.4h-.63V37H47.7a.76.76,0,0,1,.86.77c0,.3,0,.64-.34.78A1.15,1.15,0,0,1,48.52,39.19Zm-.87-1.75h-.47v.88h.35C48.1,38.32,48.09,37.44,47.65,37.44ZM33.48,40.26h-.63V37.5h-.73v-.56h2.09v.56h-.73v2.76Zm4.05,0V37.5h-.72v-.56H38.9v.56h-.74v2.76Zm1.65-3.32h2.09v.57h-.74v2.75H39.9V37.51h-.72Zm10.93.57v2.76h-.63V37.51h-.72v-.57h2.08v.57Zm-14.26,1.8V37h.62v2.3a1,1,0,1,1-2,0V37h.61v2.36a.39.39,0,1,0,.77,0Zm1.42,2.47a5.84,5.84,0,0,1,.74-.57c.27-.18,0,.23,0,.4-.05.45-.39.5-.77.41-.07,0,0-.14.08-.24ZM53.06,52.35h16l.71-8.86H53.06v8.85ZM39.53,79.94,23,79.9C26.4,83,34.29,88.69,39.48,91l.05-11.08Zm-12-36.68a5.84,5.84,0,0,0-1.09,1.3,6.79,6.79,0,0,1,1.09.52V43.26Z"/></g></g></svg>