<svg xmlns="http://www.w3.org/2000/svg" viewBox="0 0 81.33 101.04"><defs><style>.cls-1,.cls-4{fill:#edc95e;}.cls-1,.cls-2{stroke:#000;stroke-miterlimit:2.61;stroke-width:0.99px;}.cls-1,.cls-3,.cls-4,.cls-5{fill-rule:evenodd;}.cls-2{fill:none;}.cls-5{fill:#ca3132;}</style></defs><title>Porsche-color</title><g id="Layer_2" data-name="Layer 2"><g id="Layer_1-2" data-name="Layer 1"><path class="cls-1" d="M63.4,86.3c-6,5.5-11.22,8.46-22.15,14.19A105.76,105.76,0,0,1,18.67,86.81C10.71,80.61,5,70.55,4.49,64.37L.52,5.62c26.91-7,55.53-6.83,80.28.47l-4,58.16c-.51,5.26-5.22,15.5-13.37,22Z"/><path class="cls-1" d="M72.16,62.32,75.8,10.39C54.5,3.61,29,3.51,5.46,9.68L9.17,62.29c.39,5.47,4.33,13.83,11.88,20.23,4.54,3.86,13.44,10.34,20,12.82A101.1,101.1,0,0,0,61,82C67.76,75.87,71.75,68.21,72.16,62.32Z"/><path class="cls-1" d="M60.11,80.67a91.64,91.64,0,0,1-19,12.8C35,91.6,26.08,84.7,21.78,81c-7.49-6.47-10.54-13.25-11-19.65L7.13,11.12C29.52,5.24,54,5.24,74.26,11.7l-3.6,49.55C70.14,67.84,67.08,74.14,60.11,80.67Z"/><path class="cls-2" d="M8.8,12.09l.73,8.66m0,0c21.37-5.34,43.76-4.81,62.34.81m0,0,.8-8.8m0,0C53.41,6.85,30,6.53,8.8,12.09"/><path class="cls-3" d="M62,15.31l-4.82-.8L57,16.77l-1.57-.23.37-6,1.6.24-.17,2.3,4.89.79.16-2.3,1.64.31-.5,6-1.59-.3L62,15.31Zm-23.26-2a1.43,1.43,0,0,1-1.37-.68,3.31,3.31,0,0,1,0-2.28,1.36,1.36,0,0,1,1.26-.69h6.83l0,1.47H39c-.32,0-.33.71,0,.71h5.1a1.37,1.37,0,0,1,1.29.83,4.43,4.43,0,0,1,0,2.11c-.14.47-.68.73-1.35.73H37.29V14h6a.35.35,0,0,0,.33-.38.36.36,0,0,0-.33-.32Zm-4,.6a.57.57,0,0,0-.57-.56h0l-4.54.33.09,2.25L28.23,16l-.31-5.93,6.76-.5a1.27,1.27,0,0,1,1.42,1.13c0,.65.08,1.48-.42,1.82A1.61,1.61,0,0,1,36.21,14l0,1.51-1.47.06,0-1.68Z"/><path class="cls-4" d="M33.77,11.94c.58,0,.53-.93,0-.88l-4.32.33.05.82,4.27-.27Z"/><path class="cls-3" d="M19.63,11.16a47.55,47.55,0,0,1,5.71-.89,1.13,1.13,0,0,1,1.3.83,14.7,14.7,0,0,1,.2,4.16,1.2,1.2,0,0,1-1,1,48.42,48.42,0,0,1-5.64.79A1.14,1.14,0,0,1,19,16.26a15.52,15.52,0,0,1-.29-4.11,1.2,1.2,0,0,1,.88-1Z"/><path class="cls-4" d="M25,14.77a.44.44,0,0,0,.3-.4,8.4,8.4,0,0,0-.1-2.08c0-.16-.17-.26-.47-.23a39.72,39.72,0,0,0-4.08.59.48.48,0,0,0-.41.39,10.92,10.92,0,0,0,.17,2.08.34.34,0,0,0,.35.23A35.72,35.72,0,0,0,25,14.77Z"/><path class="cls-3" d="M48.84,11.41a.53.53,0,0,0-.57.35,14.49,14.49,0,0,0-.1,2,.63.63,0,0,0,.35.44c1.44.2,4.25.45,5.78.55l-.1,1.55c-2-.09-4.1-.41-6.28-.56a1.2,1.2,0,0,1-1.26-1.12,20,20,0,0,1,.23-3.85,1.27,1.27,0,0,1,1.38-.91,62.22,62.22,0,0,1,6.24.6L54.4,12c-1.27-.11-3.69-.49-5.56-.56ZM16,11.86c2-.48,2.34,3.12.64,3.54l-4.74,1.19.23,2.33-1.48.39-.53-6.07L16,11.86Z"/><path class="cls-4" d="M16,14.22c.49-.11.42-1-.1-.87l-4.28,1,.11.89Z"/><path class="cls-3" d="M66.21,16.21l-.1,1,4.69,1.18-.12,1.36-6.3-1.48.54-6.12,6.34,1.54-.14,1.42L66.4,13.94l-.09,1L71,16.11l-.11,1.21-4.67-1.11Z"/><path class="cls-2" d="M28.09,42.85V34.57H40.16V18.07m0,0A112.24,112.24,0,0,0,9.57,22m0,0,2.25,31H28.08V42.85"/><path class="cls-3" d="M28.07,37.26a5.32,5.32,0,0,0-2-.12A25.17,25.17,0,0,0,18,40a5.64,5.64,0,0,1-.16,1,1.31,1.31,0,0,1-.65.64c-.48.21-1-.42-1.28-.33a1.37,1.37,0,0,1-1.37-.1,1.17,1.17,0,0,1-.3-1.09,1.62,1.62,0,0,1,.5-.67c.17-.17.05-.82.66-1.2a1.51,1.51,0,0,1,1.44.18.62.62,0,0,0,.25-.14c.06-.18.15-.71.23-1.13s.14-.75.27-1.17a8.81,8.81,0,0,1,2-3.24,3.92,3.92,0,0,1,2.46-1c-.07.12-1,1-1.3,1.34a10.17,10.17,0,0,0-1.54,3.35,1.34,1.34,0,0,0,0,.78c.62-.27,1.43-.54,1.9-.69.19-.41.29-.88.45-1.26A7.11,7.11,0,0,1,22.2,34a4.91,4.91,0,0,1,3.49-2.27,9.89,9.89,0,0,0-1.51,1.68,8.46,8.46,0,0,0-.69,1.34,4.08,4.08,0,0,0-.25,1.07,9.22,9.22,0,0,1,1.59-.33c.26-.14.34-.42.48-.68a6,6,0,0,1,1.88-2.06,2.28,2.28,0,0,1,1.57-.33,5.81,5.81,0,0,0-1.27,1.35,3.65,3.65,0,0,0-.62,1.48,4.75,4.75,0,0,0,1.18,0l0,2v0Z"/><path class="cls-3" d="M22.72,23.68c.64-.89,2.32-2.23,3.61-2.16a8.72,8.72,0,0,0-1.76,2,8,8,0,0,0-1.14,3c.43-.16,1.44-.44,2-.57a8.34,8.34,0,0,1,2-3,3.24,3.24,0,0,1,2.25-.8,5.06,5.06,0,0,1-.72.67,3.82,3.82,0,0,0-.92,1.35,11.24,11.24,0,0,0-.46,1.52,10.32,10.32,0,0,1,1.82.13,4.42,4.42,0,0,1,3.95-1.89c-.78.42-2.19,1.64-2.1,2.32,1.16.74,2.88,2.31,3,3.76a8.83,8.83,0,0,0-2.75-1.86,10.28,10.28,0,0,0-5-.35,27.27,27.27,0,0,0-8.9,3.68,3.51,3.51,0,0,1-.51,1.34,1.57,1.57,0,0,1-.84.5A2,2,0,0,1,15.07,33c-.23-.13-.82,0-1.2-.17a1,1,0,0,1-.55-1.1c.09-.53.62-.85.69-1.36a1.28,1.28,0,0,1,.93-1.1,1.47,1.47,0,0,1,.89.17,3,3,0,0,0,.35.19,3.1,3.1,0,0,0,.36-.21c0-.09.3-1.62.45-2.29a16.42,16.42,0,0,1,.63-1.87c.66-1.86,2.68-3.74,4.3-3.64-.08.12-.6.49-1.32,1.33-1.17,1.37-1.47,2.82-1.9,5.31.9-.42,1.68-.72,2.49-1A16.26,16.26,0,0,1,22,25a8,8,0,0,1,.76-1.34Z"/><path class="cls-5" d="M71.66,25.74l-30,0,0,8.82,29.32,0Z"/><path class="cls-3" d="M48.55,65.21a14.7,14.7,0,0,0-.3,2.3c.52-.21,1-.39,1.42-.52a18.6,18.6,0,0,1,.89-1.7,7,7,0,0,1,2.51-2.36,2.82,2.82,0,0,1,2.14-.37,7.4,7.4,0,0,0-2.06,1.68,4.8,4.8,0,0,0-1.07,1.68c0,.11-.06.33-.06.33.42-.13,1.79-.33,2.36-.41.07,0,.25-.38.38-.57s.27-.37.54-.67a3.76,3.76,0,0,1,3-1.37,5.58,5.58,0,0,0-1.85,2c-.07.15-.17.36-.13.45s1,0,1.5.08A6.1,6.1,0,0,1,59.67,65a2.77,2.77,0,0,1,2.1.32,3.13,3.13,0,0,0-1.29.22,1.93,1.93,0,0,0-.88.61,6.18,6.18,0,0,1,1.64,1,6.52,6.52,0,0,1,.95,1,3.13,3.13,0,0,1,.41,2.77,5.82,5.82,0,0,0-.34-.77,5,5,0,0,0-1.15-1.32c-1.91-1.45-4.65-1.53-6.89-1.08-1.93.4-5.4,1.12-7.66,2.73a1.11,1.11,0,0,1-.38.95c-.35.25-.83-.09-1.08,0a1.18,1.18,0,0,1-1,0,.88.88,0,0,1-.53-.8c0-.28.25-.62.31-.93,0-.13-.11-.75.42-1.07a1.09,1.09,0,0,1,.61-.13c.21,0,.38.17.59.21a4.69,4.69,0,0,0,.81-.4,15.74,15.74,0,0,0,.38-2.05l1.81-1Z"/><path class="cls-2" d="M46.74,66.24a13.51,13.51,0,0,1-5.14,1.31m0,0V91.68m0,0a85.71,85.71,0,0,0,18-12.57C64.89,74,68.46,68.73,69,61.2m0,0,.5-6.86-15.93,0m0,0a13.31,13.31,0,0,1-5,10.87m0,0-1.8,1"/><path class="cls-3" d="M48.84,74.13c.25-.38.55-.95.7-1.19a4.8,4.8,0,0,1,1.82-1.72,3.47,3.47,0,0,1,2.37-.29,3.78,3.78,0,0,0-1.38.67A7.73,7.73,0,0,0,51,72.9a4.11,4.11,0,0,0-.43.8,9.48,9.48,0,0,1,1.79-.26,10.2,10.2,0,0,1,1.61-1.63,2.47,2.47,0,0,1,2-.38A5,5,0,0,0,54,73a2,2,0,0,0-.18.35l1.22.13a10.85,10.85,0,0,1,1.3-.65,1.86,1.86,0,0,1,1.88.24,2.75,2.75,0,0,0-1,.17,1.54,1.54,0,0,0-.77.57,5.33,5.33,0,0,1,2.14,1.67,1.86,1.86,0,0,1,.29,1.35,3.34,3.34,0,0,0-.87-.79,7.43,7.43,0,0,0-1.16-.62,11.07,11.07,0,0,0-5-.51,15.42,15.42,0,0,0-5.8,2.14,1,1,0,0,1-.34,1c-.47.24-.94-.17-1-.15a1.24,1.24,0,0,1-.79.06.79.79,0,0,1-.34-.9,2.12,2.12,0,0,1,.42-.58.77.77,0,0,1,.74-.88c.26,0,.45.18.66.22l.43-.21c.11-.42.29-.84.41-1.2A6.89,6.89,0,0,1,47,72.71a3.25,3.25,0,0,1,2.54-1.57,4.1,4.1,0,0,0-.74.66,8.28,8.28,0,0,0-.89,1.35,4.62,4.62,0,0,0-.47,1.63c.41-.19,1-.48,1.45-.65Zm-.17,4.54a1.86,1.86,0,0,1,.89-.17A3.3,3.3,0,0,0,48,80.4c0,.09,0,.26.06.31a6.68,6.68,0,0,0,.84-.23,5.66,5.66,0,0,1,.44-.64,2.15,2.15,0,0,1,2.22-1.09A2.67,2.67,0,0,0,50.29,80c0,.09-.09.26,0,.26l.9,0a2.24,2.24,0,0,1,1.74-.57,3,3,0,0,0-.8.54.53.53,0,0,0-.15.26,6.71,6.71,0,0,1,1.41.92,2.47,2.47,0,0,1,.75,1.17,7.15,7.15,0,0,0-3-1.25,7.34,7.34,0,0,0-1.69.16,15.63,15.63,0,0,0-4.13,1.67.93.93,0,0,1-.31.77c-.19.15-.59.22-.74,0s-.63,0-.75-.14a1.18,1.18,0,0,1-.16-.48.73.73,0,0,1,.32-.58s0-.52.38-.68a.64.64,0,0,1,.63,0l.18-.12a5.59,5.59,0,0,1,.34-1.59c.28-.78,1.19-1.72,2-1.68a4.66,4.66,0,0,0-1.1,2,5.76,5.76,0,0,0-.06.82,3.64,3.64,0,0,1,.59-.3c.08-.2.33-.7.45-.93a4,4,0,0,1,1.67-1.6Z"/><path class="cls-5" d="M12.62,62.08A18.41,18.41,0,0,0,15.55,71H40l0-3.41c-3.14,0-7.93-2.07-9.83-5.46l-17.48,0Z"/><path class="cls-2" d="M29.42,54.47c0,15.52,22.72,15.52,22.72.16m0,0V36H29.42V54.47"/><path class="cls-3" d="M36.74,47a2.16,2.16,0,0,0,.55-1c0-.27-.71-.25-1-.08a1.45,1.45,0,0,0-.41.44.41.41,0,0,1-.54.09c-.16-.16.13-.42.12-.58s-.51.14-.75,0a.31.31,0,0,1-.06-.46c.06-.08.23,0,.3-.13s.08-.21.11-.32.16-.18.25-.27a4.54,4.54,0,0,1,1-.83c.27,0,.67.17.91,0,0,0,.15-.11.06-.16l-.65-.43a.46.46,0,0,1,.15-.36c.3-.27.77-.08,1.17-.14a1.34,1.34,0,0,0,.73-.34c.05.2-.07.4-.07.61.25.23.51.43.75.66a4.11,4.11,0,0,1,1.09,2.69c0,.43,0,.87,0,1.58a4.28,4.28,0,0,0,.22-1.13,4.14,4.14,0,0,0-.72-3,6.57,6.57,0,0,0-.89-1c0-.33.32-.9.59-.69s-.08.33.1.45a1,1,0,0,0,.62.08,5.81,5.81,0,0,1,.85-.17c.13,0,.34-.07.38.06s-.06.14-.15.17-.28,0-.37.1-.15.16-.13.27a.24.24,0,0,0,.31.15,6.18,6.18,0,0,1,1.55-.23c.28,0,.22.2.08.27a.79.79,0,0,1-.32.1c-.5.06-.87.1-.81.38s.35,0,.42.15-.13.24-.12.34c.05.32.67.25,1,.18s.55-.22.65-.08a.22.22,0,0,1-.1.33,2.65,2.65,0,0,0-1,.41.36.36,0,0,0,.19.5,6.28,6.28,0,0,1,1,.13.23.23,0,0,1,.2.22c0,.13-.13.17-.23.2s-.52.06-.7.14-.17.06-.15.13.3.09.51.12.34.1.34.22-.12.18-.33.16a2,2,0,0,0-.77.08s-.29.05-.28.17.28,0,.35.19-.13.21-.14.38,0,.1.1.12a1.17,1.17,0,0,0,.69.05c.22-.05.31.26.25.29-.3.16-1,0-1.1.08s.35.44.33.51a.22.22,0,0,1-.13.16c-.29.11-.66-.1-.87,0s-.1.39-.21.53-.43.1-.57.2a.41.41,0,0,0,0,.61,1.66,1.66,0,0,0,.49.34,5.54,5.54,0,0,0,2.63.81,6.55,6.55,0,0,1,1.54.05,4.94,4.94,0,0,1,1.31.69,1.05,1.05,0,0,0,.84.07.47.47,0,0,0,.3-.51c-.13-.67-1.24-.88-1.26-1.55a3.4,3.4,0,0,0-.33-1.68c-.09-.18-.11-.61.11-.67s.23.21.38.15c.64-.26.67-1.28,1.34-1.47.39-.11,1.72-.13,1.61-.29a1,1,0,0,1,0-1.06c.1-.14.38-.27.49-.14s-.23.39-.2.65.38.71.11,1-1.36.21-1.72.74c-.21.33-.24.59,0,.56s.39-.27.58-.41.62-.36.82-.17,0,.27-.22.32-.52.44-.42.54,1-.57,1.2-.42-.41.62-.32.77.46-.11.57,0-.28.59-.53.77-.12.6-.39.74-.46.42-.42.46.1.12.22,0c.35-.22.77-.48.95-.41s0,.52-.17.75.52.1.42.29a.9.9,0,0,0-.06.56c0,.26-.69.32-.76.5a.17.17,0,0,0,.15.26.36.36,0,0,1,.21.65,1.15,1.15,0,0,1-1,.27,3.51,3.51,0,0,1-1.38-.48.22.22,0,0,0-.34.1c0,.15.12.41.19.62a1.92,1.92,0,0,1-.07,1.06c-.23.66-.86,1.22-1,2a1.21,1.21,0,0,0,.11.67,5,5,0,0,0,.75,1.22c0,.12.1.25,0,.36s-.59.53-.74.67a3,3,0,0,0-1,1.65c0,.23-.52.46-.85.55a1.86,1.86,0,0,0-.7.29c0,.19.09.35.11.53s-.36.48-.67.58a1.22,1.22,0,0,1-.46.09c-.06,0-.08-.1-.07-.15A4.84,4.84,0,0,1,44,62.2a1,1,0,0,1,.28-.33l1.2-1,.94-1.35a.56.56,0,0,0,.12-.33.92.92,0,0,0-.29-.67,4,4,0,0,0-.84-.38,5.49,5.49,0,0,1-.89-.67c-.19-.09-.3.25-.32.44a8.25,8.25,0,0,0,0,.86.46.46,0,0,1-.08.3c-.79.45-1.78.62-2.35,1.34a2.2,2.2,0,0,1-.33.35c-.33.23-.88,0-1.12.32-.11.16,0,.37,0,.55s-.22.23-.37.31a1.81,1.81,0,0,1-.64.15c-.25-.11-.09-.46,0-.7a1.51,1.51,0,0,1,.39-.67,5.53,5.53,0,0,1,.88-.68c.19-.09.49-.09.72-.18a2.67,2.67,0,0,0,.7-.34,2.34,2.34,0,0,0,.85-.86,1.29,1.29,0,0,0-.08-1.34,5,5,0,0,1-.71-1,.67.67,0,0,1,.11-.66.2.2,0,0,0-.16-.06,8.7,8.7,0,0,1-3.54-.53c-.29-.12-.6-.5-.81-.52s-.31.22-.5.27a3.49,3.49,0,0,1-1.07,0,12.85,12.85,0,0,1-1.93-.43.8.8,0,0,0-.3.09.6.6,0,0,0-.17.46c0,.23,0,.44,0,.67s-.08.25-.05.36.17.19.26.27a1,1,0,0,1,.18.67c0,.26-.09.61.13.78s.32,0,.48,0,.25.26.26.44a1.47,1.47,0,0,1-.27.74c-.08.07-.2,0-.3,0a1.27,1.27,0,0,1-.6-.52c-.06-.1-.06-.22-.12-.33a1.24,1.24,0,0,0-.43-.42.94.94,0,0,1-.27-.67,3,3,0,0,1,0-.67,4.37,4.37,0,0,0-.08-1.35,2.21,2.21,0,0,1-.18-1,.58.58,0,0,1,.3-.38,9.74,9.74,0,0,0,2.4-.42l-.51-.49c-.12,0-.22.12-.35.12s-.32-.19-.37-.26a4.17,4.17,0,0,1-.55-1.28,1,1,0,0,0-.44-.44,1,1,0,0,0-.45-.08,1.29,1.29,0,0,0-.84,1A3.26,3.26,0,0,1,32,52a.91.91,0,0,1-.32.48,1.06,1.06,0,0,0-.34.49.74.74,0,0,0,.08.5.41.41,0,0,1,.07.33c-.1.28-.76.57-1,.57s-.12-.1-.15-.17a1.67,1.67,0,0,1,0-.77,1.79,1.79,0,0,0,.38-.67,5.48,5.48,0,0,1,.21-1,22.24,22.24,0,0,1,1.71-2.35.42.42,0,0,1,.41-.08c.45.29.72.65,1.16.88.23.12.53.29.74.12s.24-1.29.37-1.57A10.64,10.64,0,0,1,36.74,47Zm8.36-7-.19.71h-.67l.87-3.31h.77l.84,3.28H46l-.16-.68ZM43.33,38.4c0-.22-.06-.5-.23-.57a.4.4,0,0,0-.47.12,2,2,0,0,0-.13,1,3.91,3.91,0,0,0,.07.89c.14.45.52.48.7.2a1.12,1.12,0,0,0,.09-.63H43V39h1v1.78h-.48V40.5a2.69,2.69,0,0,1-.32.22,1,1,0,0,1-.75,0,1.16,1.16,0,0,1-.52-.76,6.67,6.67,0,0,1,0-1.35,1.43,1.43,0,0,1,.59-1.16,1.25,1.25,0,0,1,1,0,1,1,0,0,1,.55,1Zm-11.25-.9a.82.82,0,0,1,.36.84h-.53c0-.33-.14-.5-.42-.5a.43.43,0,0,0-.4.34c0,.44.39.54.66.62a1.11,1.11,0,0,1,.56.36,1.07,1.07,0,0,1,.07,1.09,1.11,1.11,0,0,1-.68.52,1.16,1.16,0,0,1-1-.19,1,1,0,0,1-.3-.87H31a.6.6,0,0,0,.1.37.4.4,0,0,0,.3.19.43.43,0,0,0,.46-.4v-.08c0-.51-.89-.54-1.18-.87a1,1,0,0,1,0-1.31,1.07,1.07,0,0,1,1.34-.11Zm17,2.19c0,.12,0,.57,0,.85a.53.53,0,0,0,.09.2h-.63c-.08,0-.09-.15-.1-.27,0-.34,0-1.13-.31-1.13h-.4v1.4h-.63V37.47h1.13a.75.75,0,0,1,.86.77c0,.29,0,.63-.34.78a1.15,1.15,0,0,1,.3.67Z"/><path class="cls-4" d="M48.17,37.94H47.7v.88h.35C48.62,38.82,48.61,37.94,48.17,37.94Z"/><path class="cls-3" d="M34,40.75h-.63V38h-.73v-.55h2.09V38H34Zm4,0V38h-.72v-.55h2.09V38h-.74v2.76Zm1.65-3.31h2.09V38h-.74v2.75h-.63V38H39.7ZM50.63,38v2.76H50V38h-.73v-.56h2.09V38ZM36.37,39.8V37.44H37v2.3a1,1,0,1,1-2,0V37.44h.61v2.37a.39.39,0,1,0,.77,0Z"/><path class="cls-2" d="M37.79,42.28a5.36,5.36,0,0,1,.75-.57c.26-.18,0,.22-.06.39,0,.45-.39.5-.77.42-.06,0,0-.14.08-.24"/><path class="cls-5" d="M53.58,52.85h16L70.33,44H53.58v8.86ZM40.05,80.43l-16.54,0c3.41,3.06,11.3,8.79,16.49,11.11l0-11.08Z"/><path class="cls-3" d="M28.09,45.51v1.41c-.66-.48-3.7-.83-5.57-.11a13.65,13.65,0,0,0-2.61,1.35L18,49.65a1,1,0,0,0-.2.73.91.91,0,0,1-1,.85,2.11,2.11,0,0,0-1.07-.07c-.4.08-.75-.41-.78-.7s.23-.81.24-1a1.15,1.15,0,0,1,.45-1,.82.82,0,0,1,.79,0,.31.31,0,0,0,.23,0,3.65,3.65,0,0,0,.37-.29c0-.33,0-.86,0-1.16a7.28,7.28,0,0,1,.28-1.45A8.28,8.28,0,0,1,18.07,44,2.58,2.58,0,0,1,20,42.66a6,6,0,0,0-.52.86,10.37,10.37,0,0,0-.81,2.37,4.57,4.57,0,0,0-.13,1.28,14.68,14.68,0,0,1,1.36-.86,9.18,9.18,0,0,1,.84-2.39,3.06,3.06,0,0,1,2.3-1.59,6.46,6.46,0,0,0-1.38,2.47,1.9,1.9,0,0,0-.13.75,4,4,0,0,1,1.13-.33,8.84,8.84,0,0,1,.64-1.34,3.23,3.23,0,0,1,2.28-1.59,6.88,6.88,0,0,0-1.14,2,2.06,2.06,0,0,0-.13.63,8.34,8.34,0,0,1,1.15-.06,14.18,14.18,0,0,1,1.23-1.22,6.34,6.34,0,0,1,1.38-.8v1A5.32,5.32,0,0,0,27,45.06,6.06,6.06,0,0,1,28.09,45.51Z"/><path class="cls-4" d="M45.78,39.45l-.3-1.32-.28,1.32Z"/><path class="cls-3" d="M70.9,35.45H53.64V43.1l16.73,0,.51-7.37,0-.3Zm.8-10.55.15-2.49a100.38,100.38,0,0,0-30.24-4.35v6.8l30.09,0Zm-42,36.29a14.4,14.4,0,0,1-1.63-6.88l-15.93,0,.49,6.86ZM40,79.27V72.12l-23.85,0a38,38,0,0,0,5.86,7l.2.2,17.78,0Z"/></g></g></svg>